M48
METRIC,LZ,000.000
;FILE_FORMAT=3:3
;TYPE=PLATED
;Layer: PTH_Through_Via
;EasyEDA v6.5.48, 2025-02-28 21:12:29
;f07ec6733612464396c25f3e913e17d3,f6e0bafd38ec4930a7932960837fbf78,10
;Gerber Generator version 0.2
;Holesize 1 = 0.311 mm
T01C0.311
%
G05
G90
T01
X013713Y-016130
X017126Y-014605
X003776Y-032469
X015641Y-016548
X019558Y-013796
X023026Y-012324
X012240Y-013614
X012240Y-009609
X021717Y-010371
X008872Y-007312
X017541Y-030630
X017477Y-016826
X001365Y-024493
X014601Y-014911
X004980Y-010555
X014801Y-009722
X018783Y-012693
X005355Y-011577
X010146Y-005972
X020305Y-018974
X016289Y-016370
X003031Y-010237
X006223Y-011251
X011075Y-031913
X005296Y-022864
X009544Y-015701
X016209Y-013666
X015167Y-031642
X002897Y-018541
X001651Y-006223
X001651Y-007747
X003429Y-007747
X005207Y-006223
X006477Y-004826
X004445Y-002413
X003937Y-004699
X015494Y-005715
X017018Y-006350
X021844Y-006604
X021971Y-007747
X020828Y-001778
X022733Y-003048
X024638Y-001778
X024638Y-023114
X024638Y-026162
X024638Y-029210
X024638Y-031242
X022606Y-032131
X019558Y-032258
X021717Y-029718
X022733Y-027940
X022352Y-025654
X022225Y-023241
X011303Y-029591
X012700Y-027813
X009195Y-027932
X002286Y-032131
X001016Y-031115
X000762Y-028067
X003810Y-028194
X002413Y-029210
X006477Y-031369
X007620Y-029591
X001270Y-022860
X004445Y-023495
X006604Y-021717
X007620Y-014732
X004545Y-014672
X011176Y-014859
X011176Y-011938
X020320Y-011303
X017653Y-009652
X016002Y-008382
X016764Y-011811
X016510Y-015494
X000762Y-003429
X001016Y-001397
X004191Y-000762
X013716Y-002921
X017780Y-002921
X021336Y-013970
X022098Y-016764
X022225Y-019558
X015494Y-027940
X017018Y-025781
X007493Y-019177
X006477Y-018796
X009271Y-017907
X020447Y-015621
X010668Y-008255
X005969Y-023749
X006604Y-025146
X007620Y-026924
X015621Y-030480
X013313Y-031358
X009271Y-031496
M30
