G04 Layer: TopLayer*
G04 EasyEDA v6.5.48, 2025-02-28 21:12:29*
G04 f07ec6733612464396c25f3e913e17d3,f6e0bafd38ec4930a7932960837fbf78,10*
G04 Gerber Generator version 0.2*
G04 Scale: 100 percent, Rotated: No, Reflected: No *
G04 Dimensions in millimeters *
G04 leading zeros omitted , absolute positions ,4 integer and 5 decimal *
%FSLAX45Y45*%
%MOMM*%

%AMMACRO1*21,1,$1,$2,0,0,$3*%
%ADD10C,0.2000*%
%ADD11C,0.3000*%
%ADD12C,0.2540*%
%ADD13MACRO1,2.7X1.635X0.0000*%
%ADD14R,2.7000X1.6350*%
%ADD15R,0.8000X0.9000*%
%ADD16MACRO1,0.54X0.7901X-90.0000*%
%ADD17R,0.9500X1.1500*%
%ADD18R,0.8000X1.0000*%
%ADD19MACRO1,1.0699X0.5999X147.9972*%
%ADD20MACRO1,1.07X0.5999X147.9971*%
%ADD21MACRO1,1.07X0.6001X148.0005*%
%ADD22MACRO1,1.07X0.6001X-65.9984*%
%ADD23MACRO1,1.07X0.6X-65.9965*%
%ADD24MACRO1,1.07X0.6X-66.0015*%
%ADD25MACRO1,1.07X0.6X-143.9995*%
%ADD26MACRO1,1.07X0.6X-144.0003*%
%ADD27MACRO1,1.07X0.6X-143.9992*%
%ADD28R,0.6000X1.0700*%
%ADD29MACRO1,1.07X0.6001X-110.9967*%
%ADD30MACRO1,1.07X0.6X-110.9987*%
%ADD31MACRO1,1.0699X0.6X-111.0002*%
%ADD32MACRO1,1.07X0.6X-141.0008*%
%ADD33MACRO1,1.07X0.6X-140.9997*%
%ADD34MACRO1,1.07X0.6X-141.0014*%
%ADD35R,1.0700X0.6000*%
%ADD36MACRO1,1.07X0.6X-36.0005*%
%ADD37MACRO1,1.07X0.6X-35.9986*%
%ADD38MACRO1,1.07X0.6X-36.0019*%
%ADD39MACRO1,1.07X0.6X-146.9976*%
%ADD40MACRO1,1.07X0.6X-147.0018*%
%ADD41MACRO1,1.07X0.6X-147.0007*%
%ADD42MACRO1,1.07X0.5999X33.0009*%
%ADD43MACRO1,1.07X0.5999X32.9956*%
%ADD44MACRO1,1.07X0.6X32.9956*%
%ADD45MACRO1,0.864X0.8065X0.0000*%
%ADD46R,0.8640X0.8065*%
%ADD47R,1.0000X0.6500*%
%ADD48MACRO1,1.701X1.2075X0.0000*%
%ADD49R,1.7010X1.2075*%
%ADD50O,1.7420082X0.36400740000000004*%
%ADD51R,1.5748X1.5748*%
%ADD52C,1.5748*%
%ADD53C,1.5240*%
%ADD54C,0.5100*%
%ADD55C,0.0115*%

%LPD*%
G36*
X36068Y-468528D02*
G01*
X32156Y-467766D01*
X28905Y-465531D01*
X26670Y-462229D01*
X25908Y-458368D01*
X25908Y-256082D01*
X26873Y-234848D01*
X29514Y-215036D01*
X33883Y-195529D01*
X39928Y-176428D01*
X47650Y-157988D01*
X56896Y-140258D01*
X67665Y-123393D01*
X79908Y-107543D01*
X93421Y-92811D01*
X108204Y-79298D01*
X124104Y-67157D01*
X141020Y-56438D01*
X158750Y-47244D01*
X177292Y-39624D01*
X196392Y-33629D01*
X215900Y-29362D01*
X235762Y-26771D01*
X256082Y-25908D01*
X542645Y-25908D01*
X547014Y-26873D01*
X550519Y-29616D01*
X552500Y-33578D01*
X552602Y-38049D01*
X550824Y-42113D01*
X547420Y-45008D01*
X545744Y-45923D01*
X541121Y-49733D01*
X537311Y-54356D01*
X534517Y-59588D01*
X532790Y-65328D01*
X532130Y-71780D01*
X532130Y-94335D01*
X531368Y-98247D01*
X529183Y-101549D01*
X525881Y-103733D01*
X521970Y-104495D01*
X233984Y-104546D01*
X225348Y-105765D01*
X217373Y-108407D01*
X210058Y-112522D01*
X203250Y-118160D01*
X191465Y-130048D01*
X186232Y-136906D01*
X182422Y-144526D01*
X179120Y-156006D01*
X177292Y-158445D01*
X174853Y-160223D01*
X168452Y-163576D01*
X163830Y-167386D01*
X160070Y-171958D01*
X157276Y-177241D01*
X155549Y-182930D01*
X154838Y-190703D01*
X153924Y-194106D01*
X151892Y-197002D01*
X125222Y-223774D01*
X119938Y-230733D01*
X116230Y-238252D01*
X113893Y-246329D01*
X113080Y-255117D01*
X113080Y-400100D01*
X112420Y-403656D01*
X110591Y-406806D01*
X107746Y-409041D01*
X101701Y-412292D01*
X97078Y-416051D01*
X93268Y-420674D01*
X90474Y-425958D01*
X88900Y-431139D01*
X87122Y-434543D01*
X84226Y-437032D01*
X72186Y-440994D01*
X64871Y-445109D01*
X58064Y-450748D01*
X43230Y-465531D01*
X39979Y-467766D01*
G37*

%LPD*%
G36*
X1452524Y-733806D02*
G01*
X1448003Y-732739D01*
X1440383Y-728929D01*
X1431747Y-726490D01*
X1422349Y-725576D01*
X1293876Y-725576D01*
X1289964Y-724814D01*
X1286662Y-722630D01*
X1284478Y-719328D01*
X1283716Y-715416D01*
X1283716Y-604875D01*
X1284478Y-600964D01*
X1286662Y-597662D01*
X1289964Y-595477D01*
X1293876Y-594715D01*
X1297736Y-595477D01*
X1301038Y-597662D01*
X1305255Y-601878D01*
X1311808Y-607263D01*
X1318768Y-610971D01*
X1322832Y-612190D01*
X1326337Y-614070D01*
X1328826Y-617169D01*
X1331976Y-623011D01*
X1335786Y-627634D01*
X1340358Y-631444D01*
X1345641Y-634238D01*
X1351381Y-635965D01*
X1357782Y-636625D01*
X1456791Y-636625D01*
X1463243Y-635965D01*
X1468932Y-634238D01*
X1474216Y-631444D01*
X1478838Y-627634D01*
X1482598Y-623011D01*
X1485442Y-617778D01*
X1487170Y-612038D01*
X1487830Y-605586D01*
X1487830Y-541578D01*
X1487170Y-535178D01*
X1485442Y-529437D01*
X1482598Y-524154D01*
X1478838Y-519582D01*
X1474216Y-515772D01*
X1468932Y-512978D01*
X1463243Y-511251D01*
X1456791Y-510590D01*
X1357782Y-510590D01*
X1351381Y-511251D01*
X1345641Y-512978D01*
X1342694Y-514553D01*
X1338580Y-515721D01*
X1334312Y-515112D01*
X1330706Y-512775D01*
X1319885Y-501954D01*
X1317701Y-498652D01*
X1316939Y-494792D01*
X1316939Y-451104D01*
X1317752Y-447040D01*
X1320139Y-443687D01*
X1323644Y-441502D01*
X1327759Y-440943D01*
X1331722Y-442061D01*
X1340358Y-449427D01*
X1345641Y-452221D01*
X1351381Y-453948D01*
X1357782Y-454609D01*
X1456791Y-454609D01*
X1463243Y-453948D01*
X1468932Y-452221D01*
X1474216Y-449427D01*
X1478838Y-445617D01*
X1482598Y-441045D01*
X1483360Y-439623D01*
X1486306Y-436219D01*
X1490370Y-434441D01*
X1494790Y-434543D01*
X1498803Y-436524D01*
X1503070Y-440029D01*
X1510842Y-443992D01*
X1514602Y-446125D01*
X1517142Y-449529D01*
X1518056Y-453745D01*
X1518056Y-463397D01*
X1518666Y-469849D01*
X1520393Y-475538D01*
X1523238Y-480822D01*
X1526997Y-485444D01*
X1531620Y-489204D01*
X1536903Y-492048D01*
X1542592Y-493776D01*
X1549044Y-494385D01*
X1643075Y-494385D01*
X1649475Y-493776D01*
X1655216Y-492048D01*
X1660448Y-489204D01*
X1665071Y-485444D01*
X1668881Y-480822D01*
X1671675Y-475538D01*
X1673402Y-469849D01*
X1674063Y-463397D01*
X1674063Y-349402D01*
X1673402Y-342950D01*
X1671675Y-337261D01*
X1668881Y-331978D01*
X1665071Y-327355D01*
X1660448Y-323596D01*
X1655216Y-320751D01*
X1649475Y-319024D01*
X1643075Y-318414D01*
X1549044Y-318414D01*
X1542592Y-319024D01*
X1536903Y-320751D01*
X1531620Y-323596D01*
X1526997Y-327355D01*
X1523238Y-331978D01*
X1520393Y-337261D01*
X1518412Y-343865D01*
X1516329Y-347624D01*
X1512874Y-350164D01*
X1508658Y-351078D01*
X1493469Y-351078D01*
X1489913Y-350418D01*
X1486763Y-348589D01*
X1484528Y-345694D01*
X1482598Y-342188D01*
X1478838Y-337566D01*
X1474216Y-333756D01*
X1468932Y-330962D01*
X1463243Y-329234D01*
X1456791Y-328574D01*
X1357782Y-328574D01*
X1351381Y-329234D01*
X1345641Y-330962D01*
X1340358Y-333756D01*
X1331722Y-341172D01*
X1327759Y-342239D01*
X1323644Y-341680D01*
X1320139Y-339547D01*
X1317752Y-336143D01*
X1316939Y-332130D01*
X1316939Y-241554D01*
X1317650Y-237845D01*
X1319631Y-234645D01*
X1322679Y-232410D01*
X1326337Y-231444D01*
X1330096Y-231851D01*
X1333449Y-233629D01*
X1340916Y-239572D01*
X1352854Y-246837D01*
X1365656Y-252526D01*
X1379118Y-256489D01*
X1392885Y-258724D01*
X1406906Y-259181D01*
X1420825Y-257810D01*
X1434490Y-254711D01*
X1447596Y-249885D01*
X1460042Y-243382D01*
X1471523Y-235407D01*
X1481836Y-226009D01*
X1490929Y-215341D01*
X1498549Y-203606D01*
X1504645Y-191008D01*
X1509064Y-177698D01*
X1511706Y-163982D01*
X1512620Y-150012D01*
X1511706Y-136042D01*
X1509064Y-122275D01*
X1504645Y-109016D01*
X1498549Y-96418D01*
X1490929Y-84683D01*
X1481836Y-74015D01*
X1471523Y-64617D01*
X1460042Y-56591D01*
X1447596Y-50139D01*
X1435303Y-45618D01*
X1431899Y-43484D01*
X1429562Y-40233D01*
X1428699Y-36322D01*
X1429359Y-32359D01*
X1431594Y-28956D01*
X1434896Y-26720D01*
X1438859Y-25908D01*
X1876450Y-25908D01*
X1880514Y-26720D01*
X1883867Y-29108D01*
X1886000Y-32613D01*
X1886610Y-36677D01*
X1885543Y-40640D01*
X1883003Y-43840D01*
X1879346Y-45821D01*
X1873656Y-47498D01*
X1860854Y-53136D01*
X1848916Y-60401D01*
X1837943Y-69138D01*
X1828241Y-79197D01*
X1819859Y-90424D01*
X1813001Y-102616D01*
X1807718Y-115570D01*
X1804212Y-129133D01*
X1802384Y-143002D01*
X1802384Y-157022D01*
X1804212Y-170891D01*
X1807718Y-184404D01*
X1813001Y-197408D01*
X1819859Y-209600D01*
X1828241Y-220827D01*
X1837943Y-230835D01*
X1848916Y-239572D01*
X1860854Y-246837D01*
X1864868Y-248615D01*
X1868017Y-250799D01*
X1870151Y-254050D01*
X1870913Y-257860D01*
X1870913Y-302209D01*
X1871725Y-310591D01*
X1872589Y-313436D01*
X1872996Y-317398D01*
X1871827Y-321208D01*
X1869287Y-324256D01*
X1865528Y-327355D01*
X1861718Y-331978D01*
X1858924Y-337261D01*
X1857197Y-342950D01*
X1856536Y-349402D01*
X1856536Y-463397D01*
X1857197Y-469849D01*
X1858924Y-475538D01*
X1861718Y-480822D01*
X1865528Y-485444D01*
X1870151Y-489204D01*
X1875383Y-492048D01*
X1881124Y-493776D01*
X1884883Y-494131D01*
X1888439Y-495198D01*
X1891385Y-497433D01*
X1893366Y-500583D01*
X1894027Y-504240D01*
X1894027Y-559765D01*
X1894332Y-562864D01*
X1893874Y-567080D01*
X1891741Y-570687D01*
X1888337Y-573176D01*
X1884222Y-574040D01*
X1871268Y-574040D01*
X1864817Y-574700D01*
X1859076Y-576427D01*
X1853844Y-579221D01*
X1849221Y-583031D01*
X1845411Y-587603D01*
X1842617Y-592886D01*
X1840890Y-598627D01*
X1840230Y-605028D01*
X1840230Y-723646D01*
X1839468Y-727506D01*
X1837283Y-730808D01*
X1833981Y-732993D01*
X1830070Y-733806D01*
G37*

%LPC*%
G36*
X1703120Y-249072D02*
G01*
X1714042Y-243382D01*
X1725523Y-235407D01*
X1735836Y-226009D01*
X1744929Y-215341D01*
X1752549Y-203606D01*
X1756359Y-195732D01*
X1703120Y-195732D01*
G37*
G36*
X1611680Y-248970D02*
G01*
X1611680Y-195732D01*
X1558290Y-195732D01*
X1559001Y-197408D01*
X1565859Y-209600D01*
X1574241Y-220827D01*
X1583944Y-230835D01*
X1594916Y-239572D01*
X1606854Y-246837D01*
G37*
G36*
X1558290Y-104292D02*
G01*
X1611680Y-104292D01*
X1611680Y-51054D01*
X1606854Y-53136D01*
X1594916Y-60401D01*
X1583944Y-69138D01*
X1574241Y-79197D01*
X1565859Y-90424D01*
X1559001Y-102616D01*
G37*
G36*
X1703120Y-104292D02*
G01*
X1756359Y-104292D01*
X1752549Y-96418D01*
X1744929Y-84683D01*
X1735836Y-74015D01*
X1725523Y-64617D01*
X1714042Y-56591D01*
X1703120Y-50901D01*
G37*

%LPD*%
G36*
X110439Y-952093D02*
G01*
X106781Y-951077D01*
X103784Y-948842D01*
X101803Y-945642D01*
X101092Y-941933D01*
X101092Y-567537D01*
X101955Y-563422D01*
X104394Y-560019D01*
X108051Y-557885D01*
X112217Y-557428D01*
X119126Y-558088D01*
X198120Y-558088D01*
X204571Y-557479D01*
X210261Y-555752D01*
X215544Y-552907D01*
X220725Y-548386D01*
X224231Y-545642D01*
X228600Y-544677D01*
X232968Y-545642D01*
X241655Y-552907D01*
X246938Y-555752D01*
X252628Y-557479D01*
X259079Y-558088D01*
X272237Y-558088D01*
X272237Y-511454D01*
X239267Y-511454D01*
X235407Y-510692D01*
X232105Y-508457D01*
X229870Y-505155D01*
X229108Y-501294D01*
X229108Y-463905D01*
X229870Y-460044D01*
X232105Y-456742D01*
X235407Y-454507D01*
X239267Y-453745D01*
X272237Y-453745D01*
X272237Y-407111D01*
X259079Y-407111D01*
X252628Y-407720D01*
X246938Y-409448D01*
X241655Y-412292D01*
X236474Y-416814D01*
X232968Y-419557D01*
X228600Y-420522D01*
X224231Y-419557D01*
X215544Y-412292D01*
X209448Y-409041D01*
X206603Y-406755D01*
X204774Y-403656D01*
X204114Y-400100D01*
X204114Y-283565D01*
X204876Y-279654D01*
X207060Y-276402D01*
X210362Y-274167D01*
X214274Y-273405D01*
X263906Y-273405D01*
X270357Y-272796D01*
X276453Y-270916D01*
X279400Y-270459D01*
X282346Y-270916D01*
X288442Y-272796D01*
X294894Y-273405D01*
X307797Y-273405D01*
X307797Y-235762D01*
X305054Y-235762D01*
X301193Y-235000D01*
X297891Y-232765D01*
X295656Y-229463D01*
X294894Y-225602D01*
X294894Y-206197D01*
X295656Y-202336D01*
X297891Y-199034D01*
X301193Y-196799D01*
X305054Y-196037D01*
X314706Y-196037D01*
X317957Y-195529D01*
X349859Y-195529D01*
X353110Y-196037D01*
X410819Y-196037D01*
X414070Y-195529D01*
X521970Y-195529D01*
X525881Y-196291D01*
X529183Y-198475D01*
X531368Y-201777D01*
X532130Y-205689D01*
X532130Y-228244D01*
X532790Y-234696D01*
X534517Y-240385D01*
X537311Y-245668D01*
X541121Y-250291D01*
X545744Y-254050D01*
X551027Y-256895D01*
X556717Y-258622D01*
X563168Y-259232D01*
X585724Y-259232D01*
X589635Y-259994D01*
X592937Y-262229D01*
X595122Y-265531D01*
X595884Y-269392D01*
X595934Y-329133D01*
X597154Y-337769D01*
X599795Y-345744D01*
X603910Y-353060D01*
X609549Y-359867D01*
X762101Y-512470D01*
X764336Y-515772D01*
X765098Y-519633D01*
X764336Y-523544D01*
X762101Y-526796D01*
X758799Y-529031D01*
X754938Y-529793D01*
X703681Y-529793D01*
X697230Y-530453D01*
X691540Y-532180D01*
X686257Y-534974D01*
X681634Y-538784D01*
X677875Y-543356D01*
X675030Y-548640D01*
X673303Y-554380D01*
X672693Y-560781D01*
X672693Y-562965D01*
X671779Y-567182D01*
X669239Y-570585D01*
X657707Y-576681D01*
X651154Y-582015D01*
X286816Y-946403D01*
X283514Y-948588D01*
X279603Y-949350D01*
X210870Y-949350D01*
X206959Y-948588D01*
X203657Y-946403D01*
X201472Y-943102D01*
X200710Y-939190D01*
X200710Y-929081D01*
X154940Y-929081D01*
X154940Y-939190D01*
X154178Y-943102D01*
X151993Y-946403D01*
X148691Y-948588D01*
X144780Y-949350D01*
X127508Y-949350D01*
X119126Y-950163D01*
X114198Y-951687D01*
G37*

%LPC*%
G36*
X154940Y-876046D02*
G01*
X200710Y-876046D01*
X200710Y-862736D01*
X200050Y-856335D01*
X198323Y-850595D01*
X195529Y-845312D01*
X191719Y-840740D01*
X187096Y-836930D01*
X181864Y-834136D01*
X176123Y-832358D01*
X169722Y-831748D01*
X154940Y-831748D01*
G37*
G36*
X324916Y-558088D02*
G01*
X338074Y-558088D01*
X344525Y-557479D01*
X350266Y-555752D01*
X355498Y-552907D01*
X360121Y-549148D01*
X363931Y-544525D01*
X366725Y-539242D01*
X368452Y-533552D01*
X369112Y-527100D01*
X369112Y-511454D01*
X324916Y-511454D01*
G37*
G36*
X324916Y-453745D02*
G01*
X369112Y-453745D01*
X369112Y-438099D01*
X368452Y-431647D01*
X366725Y-425958D01*
X363931Y-420674D01*
X360121Y-416051D01*
X355498Y-412292D01*
X350266Y-409448D01*
X344525Y-407720D01*
X338074Y-407111D01*
X324916Y-407111D01*
G37*
G36*
X360019Y-273405D02*
G01*
X372922Y-273405D01*
X379374Y-272796D01*
X385064Y-271018D01*
X390347Y-268224D01*
X394970Y-264414D01*
X398729Y-259842D01*
X401523Y-254558D01*
X403301Y-248818D01*
X403910Y-242417D01*
X403910Y-235762D01*
X360019Y-235762D01*
G37*

%LPD*%
G36*
X907643Y-1181658D02*
G01*
X904087Y-1181303D01*
X900887Y-1179728D01*
X823468Y-1179728D01*
X819454Y-1180592D01*
X739952Y-1180592D01*
X735888Y-1179728D01*
X671068Y-1179728D01*
X667156Y-1178966D01*
X663854Y-1176782D01*
X661670Y-1173480D01*
X660908Y-1169568D01*
X661670Y-1165707D01*
X663854Y-1162405D01*
X665175Y-1161084D01*
X670712Y-1153160D01*
X672947Y-1150874D01*
X675843Y-1149350D01*
X679043Y-1148842D01*
X735888Y-1148842D01*
X739952Y-1148029D01*
X819454Y-1148029D01*
X823518Y-1148842D01*
X894587Y-1148842D01*
X892149Y-1142593D01*
X888796Y-1137158D01*
X887425Y-1133652D01*
X887425Y-1129944D01*
X888796Y-1126439D01*
X892149Y-1121003D01*
X895400Y-1112621D01*
X897077Y-1103782D01*
X897077Y-1094790D01*
X895400Y-1086002D01*
X892149Y-1077620D01*
X888796Y-1072134D01*
X887425Y-1068679D01*
X887425Y-1064920D01*
X888796Y-1061466D01*
X892149Y-1055979D01*
X895400Y-1047597D01*
X897077Y-1038809D01*
X897077Y-1029817D01*
X895400Y-1020978D01*
X892149Y-1012596D01*
X888796Y-1007160D01*
X887425Y-1003655D01*
X887425Y-999947D01*
X888796Y-996442D01*
X892149Y-991006D01*
X895400Y-982624D01*
X897077Y-973785D01*
X897077Y-964793D01*
X895400Y-956005D01*
X892149Y-947623D01*
X888796Y-942136D01*
X887425Y-938682D01*
X887425Y-934923D01*
X888796Y-931468D01*
X892149Y-925982D01*
X895400Y-917600D01*
X897077Y-908812D01*
X897077Y-899820D01*
X895400Y-890981D01*
X892149Y-882599D01*
X888796Y-877163D01*
X887425Y-873658D01*
X887425Y-869950D01*
X888796Y-866444D01*
X892149Y-861009D01*
X895400Y-852627D01*
X897077Y-843787D01*
X897077Y-834796D01*
X895400Y-826008D01*
X892149Y-817625D01*
X888796Y-812139D01*
X887425Y-808685D01*
X887425Y-804926D01*
X888796Y-801471D01*
X892149Y-795985D01*
X893927Y-791464D01*
X895502Y-788720D01*
X897890Y-786587D01*
X900785Y-785317D01*
X906373Y-783793D01*
X915212Y-779678D01*
X923239Y-774090D01*
X930097Y-767181D01*
X935736Y-759206D01*
X939850Y-750366D01*
X942390Y-740918D01*
X943203Y-731215D01*
X942390Y-721512D01*
X939850Y-712063D01*
X935736Y-703224D01*
X930097Y-695248D01*
X923239Y-688340D01*
X915212Y-682752D01*
X912723Y-681583D01*
X909624Y-679348D01*
X907592Y-676097D01*
X906830Y-672388D01*
X906830Y-641654D01*
X862685Y-641654D01*
X862685Y-659790D01*
X863346Y-666242D01*
X864666Y-670610D01*
X865073Y-674166D01*
X864209Y-677672D01*
X862177Y-680669D01*
X851255Y-688340D01*
X844397Y-695248D01*
X838758Y-703224D01*
X834644Y-712063D01*
X833069Y-718058D01*
X831037Y-721969D01*
X827532Y-724662D01*
X823214Y-725576D01*
X711250Y-725576D01*
X701852Y-726490D01*
X693216Y-728929D01*
X685190Y-732942D01*
X678027Y-738327D01*
X671982Y-744982D01*
X667258Y-752602D01*
X664006Y-760984D01*
X662330Y-769823D01*
X662330Y-778814D01*
X663854Y-786739D01*
X663702Y-791159D01*
X661670Y-795121D01*
X658164Y-797814D01*
X653846Y-798779D01*
X630529Y-798779D01*
X622147Y-799592D01*
X614578Y-801928D01*
X607568Y-805637D01*
X601065Y-811022D01*
X376021Y-1036015D01*
X372567Y-1038301D01*
X368554Y-1039012D01*
X364540Y-1038047D01*
X361238Y-1035608D01*
X359206Y-1032052D01*
X358698Y-1027988D01*
X359105Y-1023670D01*
X358241Y-1013968D01*
X355701Y-1004519D01*
X354736Y-1002436D01*
X353822Y-998474D01*
X354533Y-994410D01*
X356768Y-990955D01*
X666648Y-681126D01*
X670153Y-678840D01*
X674319Y-678180D01*
X678383Y-679196D01*
X686257Y-685647D01*
X691540Y-688441D01*
X697230Y-690168D01*
X703681Y-690829D01*
X782675Y-690829D01*
X789127Y-690168D01*
X794867Y-688441D01*
X800100Y-685647D01*
X804722Y-681837D01*
X808532Y-677214D01*
X811326Y-671931D01*
X813053Y-666242D01*
X813714Y-659790D01*
X813714Y-560781D01*
X813053Y-554380D01*
X811326Y-548640D01*
X809853Y-545947D01*
X808685Y-541934D01*
X809244Y-537819D01*
X811377Y-534263D01*
X814781Y-531825D01*
X818845Y-530961D01*
X857554Y-530961D01*
X861618Y-531825D01*
X865022Y-534263D01*
X867156Y-537819D01*
X867664Y-541934D01*
X866495Y-545947D01*
X865073Y-548640D01*
X863346Y-554380D01*
X862685Y-560781D01*
X862685Y-578967D01*
X906830Y-578967D01*
X906830Y-541121D01*
X907643Y-537260D01*
X909828Y-533958D01*
X913130Y-531774D01*
X916990Y-530961D01*
X949401Y-530961D01*
X953262Y-531774D01*
X956564Y-533958D01*
X958799Y-537260D01*
X959561Y-541121D01*
X959561Y-578967D01*
X1003706Y-578967D01*
X1003706Y-560781D01*
X1003096Y-554380D01*
X1001318Y-548640D01*
X999896Y-545947D01*
X998728Y-541934D01*
X999236Y-537819D01*
X1001369Y-534263D01*
X1004773Y-531825D01*
X1008837Y-530961D01*
X1016660Y-530961D01*
X1020521Y-531774D01*
X1023823Y-533958D01*
X1026007Y-537260D01*
X1026820Y-541121D01*
X1026820Y-605586D01*
X1027430Y-612038D01*
X1029157Y-617778D01*
X1032002Y-623011D01*
X1035761Y-627634D01*
X1040384Y-631444D01*
X1045667Y-634238D01*
X1051356Y-635965D01*
X1057808Y-636625D01*
X1129690Y-636625D01*
X1133551Y-637387D01*
X1136853Y-639572D01*
X1139088Y-642874D01*
X1139850Y-646785D01*
X1139850Y-900684D01*
X1139037Y-904697D01*
X1131620Y-914755D01*
X1127912Y-922274D01*
X1125575Y-930351D01*
X1124762Y-939139D01*
X1124762Y-963828D01*
X1124000Y-967689D01*
X1121816Y-970991D01*
X914044Y-1178712D01*
X911148Y-1180795D01*
G37*

%LPC*%
G36*
X959561Y-690829D02*
G01*
X972718Y-690829D01*
X979119Y-690168D01*
X984859Y-688441D01*
X990142Y-685647D01*
X994714Y-681837D01*
X998524Y-677214D01*
X1001318Y-671931D01*
X1003096Y-666242D01*
X1003706Y-659790D01*
X1003706Y-641654D01*
X959561Y-641654D01*
G37*

%LPD*%
G36*
X1842414Y-1225296D02*
G01*
X1837994Y-1225092D01*
X1834083Y-1223060D01*
X1831441Y-1219555D01*
X1830476Y-1215288D01*
X1830476Y-1205077D01*
X1829663Y-1196695D01*
X1827326Y-1189126D01*
X1823618Y-1182116D01*
X1818233Y-1175613D01*
X1474774Y-832154D01*
X1472590Y-828852D01*
X1471828Y-824941D01*
X1472590Y-821080D01*
X1474774Y-817778D01*
X1478076Y-815594D01*
X1481988Y-814781D01*
X1932686Y-814781D01*
X1936597Y-815594D01*
X1939899Y-817778D01*
X1974545Y-852474D01*
X1976780Y-855726D01*
X1977542Y-859637D01*
X1976780Y-863498D01*
X1974545Y-866800D01*
X1971293Y-869035D01*
X1967382Y-869797D01*
X1871268Y-869797D01*
X1864817Y-870407D01*
X1859076Y-872185D01*
X1853844Y-874979D01*
X1849221Y-878789D01*
X1845411Y-883361D01*
X1842617Y-888644D01*
X1840890Y-894334D01*
X1840230Y-900785D01*
X1840230Y-1020571D01*
X1840890Y-1026972D01*
X1842617Y-1032713D01*
X1845411Y-1037996D01*
X1849221Y-1042568D01*
X1853844Y-1046378D01*
X1859076Y-1049172D01*
X1864817Y-1050899D01*
X1871268Y-1051560D01*
X1905152Y-1051560D01*
X1909013Y-1052322D01*
X1912315Y-1054557D01*
X1914499Y-1057808D01*
X1915312Y-1061720D01*
X1915312Y-1209090D01*
X1914499Y-1213104D01*
X1912213Y-1216406D01*
X1908759Y-1218590D01*
X1904796Y-1219250D01*
X1900834Y-1218336D01*
X1897481Y-1216761D01*
X1888032Y-1214221D01*
X1878330Y-1213358D01*
X1868627Y-1214221D01*
X1859178Y-1216761D01*
X1850339Y-1220876D01*
X1846478Y-1223568D01*
G37*

%LPD*%
G36*
X238404Y-1241704D02*
G01*
X234391Y-1240586D01*
X231190Y-1237996D01*
X227279Y-1233220D01*
X222656Y-1229461D01*
X217373Y-1226616D01*
X211683Y-1224889D01*
X205232Y-1224280D01*
X181203Y-1224280D01*
X177088Y-1223365D01*
X173685Y-1220927D01*
X171551Y-1217320D01*
X168605Y-1208328D01*
X164490Y-1201013D01*
X158851Y-1194206D01*
X106019Y-1141374D01*
X103835Y-1138123D01*
X103073Y-1134211D01*
X103835Y-1130300D01*
X106019Y-1127048D01*
X109321Y-1124813D01*
X113233Y-1124051D01*
X169722Y-1124051D01*
X176123Y-1123442D01*
X181864Y-1121664D01*
X187096Y-1118870D01*
X191719Y-1115060D01*
X195529Y-1110488D01*
X198323Y-1105204D01*
X200050Y-1099464D01*
X200710Y-1093063D01*
X200710Y-1040536D01*
X201472Y-1036624D01*
X203657Y-1033322D01*
X206959Y-1031138D01*
X210870Y-1030376D01*
X239420Y-1030376D01*
X243687Y-1031341D01*
X247192Y-1033983D01*
X249224Y-1037894D01*
X250545Y-1042822D01*
X254660Y-1051661D01*
X260248Y-1059637D01*
X267157Y-1066546D01*
X275132Y-1072134D01*
X283972Y-1076248D01*
X293420Y-1078788D01*
X303123Y-1079652D01*
X307441Y-1079246D01*
X311505Y-1079754D01*
X315061Y-1081786D01*
X317500Y-1085088D01*
X318465Y-1089101D01*
X317754Y-1093114D01*
X315468Y-1096568D01*
X261416Y-1150620D01*
X256082Y-1157173D01*
X252323Y-1164132D01*
X250037Y-1171752D01*
X249224Y-1180134D01*
X249224Y-1231544D01*
X248361Y-1235608D01*
X245973Y-1238961D01*
X242468Y-1241094D01*
G37*

%LPD*%
G36*
X2514600Y-1284478D02*
G01*
X2510485Y-1282649D01*
X2507640Y-1279245D01*
X2506421Y-1276858D01*
X2498394Y-1265377D01*
X2488996Y-1255014D01*
X2478328Y-1245971D01*
X2466594Y-1238351D01*
X2453995Y-1232255D01*
X2440686Y-1227836D01*
X2426970Y-1225194D01*
X2413000Y-1224280D01*
X2399030Y-1225194D01*
X2385314Y-1227836D01*
X2371191Y-1232560D01*
X2367584Y-1233068D01*
X2364028Y-1232306D01*
X2360980Y-1230274D01*
X2358796Y-1227328D01*
X2357780Y-1222705D01*
X2355240Y-1213256D01*
X2351125Y-1204417D01*
X2345486Y-1196441D01*
X2338628Y-1189532D01*
X2330602Y-1183944D01*
X2321763Y-1179830D01*
X2312365Y-1177290D01*
X2302611Y-1176426D01*
X2292908Y-1177290D01*
X2283510Y-1179830D01*
X2274874Y-1183843D01*
X2270861Y-1184808D01*
X2266797Y-1184097D01*
X2263394Y-1181811D01*
X2252675Y-1171092D01*
X2250541Y-1167993D01*
X2249728Y-1164336D01*
X2250236Y-1160576D01*
X2252116Y-1157325D01*
X2255062Y-1154938D01*
X2260396Y-1152093D01*
X2271268Y-1143406D01*
X2274874Y-1142542D01*
X2278532Y-1143050D01*
X2281834Y-1144828D01*
X2285644Y-1147978D01*
X2290876Y-1150772D01*
X2296617Y-1152499D01*
X2303068Y-1153160D01*
X2472131Y-1153160D01*
X2478582Y-1152499D01*
X2484323Y-1150772D01*
X2489555Y-1147978D01*
X2494178Y-1144168D01*
X2497988Y-1139596D01*
X2500782Y-1134313D01*
X2502509Y-1128572D01*
X2503170Y-1122172D01*
X2503170Y-1002385D01*
X2502509Y-995934D01*
X2500782Y-990244D01*
X2497988Y-984961D01*
X2494178Y-980389D01*
X2489555Y-976579D01*
X2484323Y-973785D01*
X2478582Y-972007D01*
X2472131Y-971397D01*
X2303068Y-971397D01*
X2296617Y-972007D01*
X2290876Y-973785D01*
X2285644Y-976579D01*
X2281021Y-980389D01*
X2277211Y-984961D01*
X2274417Y-990244D01*
X2272690Y-995934D01*
X2272030Y-1002385D01*
X2272030Y-1014933D01*
X2271115Y-1019149D01*
X2268575Y-1022553D01*
X2257044Y-1028649D01*
X2250897Y-1033678D01*
X2245461Y-1040333D01*
X2242362Y-1042873D01*
X2238552Y-1043990D01*
X2234590Y-1043584D01*
X2231085Y-1041704D01*
X2228596Y-1038606D01*
X2227478Y-1034796D01*
X2226818Y-1027379D01*
X2224278Y-1017981D01*
X2220163Y-1009142D01*
X2214575Y-1001115D01*
X2207666Y-994257D01*
X2199690Y-988618D01*
X2190851Y-984503D01*
X2181402Y-982014D01*
X2171700Y-981151D01*
X2161997Y-982014D01*
X2158238Y-982980D01*
X2154529Y-983284D01*
X2150973Y-982218D01*
X2148027Y-979982D01*
X2146096Y-976833D01*
X2145436Y-973175D01*
X2145436Y-926033D01*
X2144623Y-917651D01*
X2142286Y-910031D01*
X2138578Y-903071D01*
X2133193Y-896518D01*
X2009851Y-773125D01*
X2007616Y-769874D01*
X2006854Y-765962D01*
X2007616Y-762101D01*
X2009851Y-758799D01*
X2013102Y-756564D01*
X2017014Y-755802D01*
X2040331Y-755802D01*
X2046782Y-755192D01*
X2052523Y-753414D01*
X2057755Y-750620D01*
X2062378Y-746810D01*
X2066188Y-742238D01*
X2068982Y-736955D01*
X2070709Y-731266D01*
X2071370Y-724814D01*
X2071370Y-605028D01*
X2070709Y-598627D01*
X2069033Y-593039D01*
X2068626Y-589432D01*
X2069490Y-585927D01*
X2071573Y-582930D01*
X2091131Y-563372D01*
X2094280Y-561238D01*
X2097989Y-560374D01*
X2101748Y-560984D01*
X2104999Y-562914D01*
X2107336Y-565912D01*
X2110181Y-575360D01*
X2112975Y-580644D01*
X2116785Y-585216D01*
X2121357Y-589026D01*
X2126640Y-591820D01*
X2132380Y-593547D01*
X2138781Y-594207D01*
X2380691Y-594207D01*
X2384552Y-594969D01*
X2387854Y-597204D01*
X2390038Y-600456D01*
X2390851Y-604367D01*
X2390851Y-618388D01*
X2390038Y-622249D01*
X2387854Y-625551D01*
X2359304Y-654100D01*
X2353970Y-660654D01*
X2347874Y-672185D01*
X2344470Y-674725D01*
X2340254Y-675640D01*
X2303068Y-675640D01*
X2296617Y-676300D01*
X2290876Y-678027D01*
X2285644Y-680821D01*
X2281021Y-684631D01*
X2277211Y-689203D01*
X2274417Y-694486D01*
X2272690Y-700227D01*
X2272030Y-706628D01*
X2272030Y-826414D01*
X2272690Y-832866D01*
X2274417Y-838555D01*
X2277211Y-843838D01*
X2281021Y-848410D01*
X2285644Y-852220D01*
X2290876Y-855014D01*
X2296617Y-856792D01*
X2303068Y-857402D01*
X2472131Y-857402D01*
X2478582Y-856792D01*
X2484323Y-855014D01*
X2489555Y-852220D01*
X2494178Y-848410D01*
X2497988Y-843838D01*
X2500782Y-838555D01*
X2502509Y-832866D01*
X2503170Y-826414D01*
X2503170Y-706628D01*
X2502509Y-700227D01*
X2500782Y-694486D01*
X2497988Y-689203D01*
X2494178Y-684631D01*
X2489555Y-680821D01*
X2484323Y-678027D01*
X2478582Y-676300D01*
X2473452Y-675792D01*
X2469692Y-674624D01*
X2466594Y-672084D01*
X2464714Y-668629D01*
X2464358Y-664667D01*
X2465476Y-660857D01*
X2468727Y-654862D01*
X2471013Y-647242D01*
X2471826Y-638860D01*
X2471826Y-482447D01*
X2471013Y-474065D01*
X2468727Y-466445D01*
X2464968Y-459485D01*
X2459939Y-453339D01*
X2453792Y-448309D01*
X2442260Y-442214D01*
X2439720Y-438810D01*
X2438806Y-434593D01*
X2438806Y-400710D01*
X2438146Y-394258D01*
X2436418Y-388569D01*
X2433624Y-383286D01*
X2429814Y-378663D01*
X2425242Y-374853D01*
X2419959Y-372059D01*
X2414219Y-370332D01*
X2407818Y-369671D01*
X2138781Y-369671D01*
X2132380Y-370332D01*
X2126640Y-372059D01*
X2121357Y-374853D01*
X2116785Y-378663D01*
X2112975Y-383286D01*
X2110181Y-388569D01*
X2108454Y-394258D01*
X2107793Y-400710D01*
X2107793Y-434593D01*
X2106879Y-438810D01*
X2104339Y-442214D01*
X2092807Y-448309D01*
X2086254Y-453643D01*
X1992934Y-546963D01*
X1989632Y-549198D01*
X1985772Y-549960D01*
X1981860Y-549198D01*
X1977999Y-546455D01*
X1975815Y-543153D01*
X1975053Y-539242D01*
X1975053Y-504240D01*
X1975713Y-500583D01*
X1977694Y-497433D01*
X1980641Y-495198D01*
X1984197Y-494131D01*
X1988007Y-493776D01*
X1993696Y-492048D01*
X1998980Y-489204D01*
X2003602Y-485444D01*
X2007362Y-480822D01*
X2010206Y-475538D01*
X2011934Y-469849D01*
X2012543Y-463397D01*
X2012543Y-349402D01*
X2011934Y-342950D01*
X2010206Y-337261D01*
X2007362Y-331978D01*
X2003602Y-327355D01*
X1998980Y-323596D01*
X1993696Y-320751D01*
X1988007Y-319024D01*
X1981047Y-318363D01*
X1977491Y-317347D01*
X1974545Y-315112D01*
X1968195Y-303377D01*
X1962810Y-296875D01*
X1954885Y-288899D01*
X1952701Y-285597D01*
X1951888Y-281736D01*
X1951888Y-257962D01*
X1952548Y-254355D01*
X1954479Y-251206D01*
X1957374Y-248970D01*
X1968042Y-243382D01*
X1979523Y-235407D01*
X1989836Y-226009D01*
X1998929Y-215341D01*
X2006549Y-203606D01*
X2012645Y-191008D01*
X2017064Y-177698D01*
X2019706Y-163982D01*
X2020620Y-150012D01*
X2019706Y-136042D01*
X2017064Y-122275D01*
X2012645Y-109016D01*
X2006549Y-96418D01*
X1998929Y-84683D01*
X1989836Y-74015D01*
X1979523Y-64617D01*
X1968042Y-56591D01*
X1955596Y-50139D01*
X1943303Y-45618D01*
X1939899Y-43484D01*
X1937562Y-40233D01*
X1936699Y-36322D01*
X1937359Y-32359D01*
X1939594Y-28956D01*
X1942896Y-26720D01*
X1946859Y-25908D01*
X2296617Y-25908D01*
X2317800Y-26873D01*
X2337663Y-29514D01*
X2357170Y-33883D01*
X2376271Y-39928D01*
X2392476Y-46634D01*
X2395778Y-48869D01*
X2397963Y-52171D01*
X2398725Y-56032D01*
X2397963Y-59943D01*
X2395778Y-63195D01*
X2392476Y-65430D01*
X2388565Y-66192D01*
X2347163Y-66192D01*
X2347163Y-131216D01*
X2438806Y-131216D01*
X2438806Y-97180D01*
X2439568Y-93319D01*
X2441702Y-90068D01*
X2444851Y-87884D01*
X2448661Y-87020D01*
X2452522Y-87630D01*
X2455824Y-89662D01*
X2459888Y-93421D01*
X2473350Y-108204D01*
X2485542Y-124104D01*
X2496261Y-141020D01*
X2505456Y-158750D01*
X2513076Y-177292D01*
X2519019Y-196392D01*
X2523337Y-215900D01*
X2525928Y-235762D01*
X2526792Y-256082D01*
X2526792Y-1274521D01*
X2525826Y-1278890D01*
X2523032Y-1282395D01*
X2519070Y-1284376D01*
G37*

%LPC*%
G36*
X2138781Y-290728D02*
G01*
X2199436Y-290728D01*
X2199436Y-225653D01*
X2107793Y-225653D01*
X2107793Y-259689D01*
X2108454Y-266141D01*
X2110181Y-271830D01*
X2112975Y-277114D01*
X2116785Y-281736D01*
X2121357Y-285546D01*
X2126640Y-288340D01*
X2132380Y-290068D01*
G37*
G36*
X2347163Y-290728D02*
G01*
X2407818Y-290728D01*
X2414219Y-290068D01*
X2419959Y-288340D01*
X2425242Y-285546D01*
X2429814Y-281736D01*
X2433624Y-277114D01*
X2436418Y-271830D01*
X2438146Y-266141D01*
X2438806Y-259689D01*
X2438806Y-225653D01*
X2347163Y-225653D01*
G37*
G36*
X2107793Y-131216D02*
G01*
X2199436Y-131216D01*
X2199436Y-66192D01*
X2138781Y-66192D01*
X2132380Y-66852D01*
X2126640Y-68580D01*
X2121357Y-71374D01*
X2116785Y-75184D01*
X2112975Y-79756D01*
X2110181Y-85039D01*
X2108454Y-90779D01*
X2107793Y-97180D01*
G37*

%LPD*%
G36*
X239166Y-1556410D02*
G01*
X235305Y-1555699D01*
X232003Y-1553565D01*
X229768Y-1550365D01*
X223824Y-1537004D01*
X216560Y-1525016D01*
X207873Y-1514043D01*
X197815Y-1504340D01*
X186588Y-1495958D01*
X174396Y-1489100D01*
X161442Y-1483817D01*
X147878Y-1480312D01*
X134010Y-1478483D01*
X119989Y-1478483D01*
X106121Y-1480312D01*
X92557Y-1483817D01*
X79603Y-1489100D01*
X67411Y-1495958D01*
X56184Y-1504340D01*
X46126Y-1514043D01*
X43992Y-1516735D01*
X40792Y-1519377D01*
X36830Y-1520545D01*
X32715Y-1519986D01*
X29159Y-1517853D01*
X26771Y-1514449D01*
X25908Y-1510385D01*
X25908Y-1450848D01*
X26619Y-1447139D01*
X28600Y-1443939D01*
X31648Y-1441704D01*
X35255Y-1440688D01*
X39014Y-1441094D01*
X42316Y-1442110D01*
X48768Y-1442770D01*
X205232Y-1442770D01*
X211683Y-1442110D01*
X217373Y-1440383D01*
X222656Y-1437538D01*
X227279Y-1433779D01*
X231190Y-1429004D01*
X234391Y-1426413D01*
X238404Y-1425295D01*
X242468Y-1425905D01*
X245973Y-1428038D01*
X248361Y-1431391D01*
X249224Y-1435455D01*
X249224Y-1546250D01*
X248462Y-1550111D01*
X246278Y-1553362D01*
X243027Y-1555597D01*
G37*

%LPD*%
G36*
X1661566Y-1589786D02*
G01*
X1657604Y-1588871D01*
X1648002Y-1584401D01*
X1638604Y-1581861D01*
X1633982Y-1581454D01*
X1630578Y-1580540D01*
X1627682Y-1578508D01*
X1615643Y-1566468D01*
X1613458Y-1563166D01*
X1612646Y-1559255D01*
X1612646Y-1432610D01*
X1613357Y-1428902D01*
X1615338Y-1425702D01*
X1618335Y-1423466D01*
X1621942Y-1422450D01*
X1630578Y-1421739D01*
X1639976Y-1419199D01*
X1648815Y-1415084D01*
X1655572Y-1410360D01*
X1659229Y-1408734D01*
X1662074Y-1408734D01*
X1662125Y-1406296D01*
X1663700Y-1402588D01*
X1669338Y-1394561D01*
X1673453Y-1385722D01*
X1675993Y-1376324D01*
X1676806Y-1366621D01*
X1675993Y-1356868D01*
X1673453Y-1347470D01*
X1669338Y-1338630D01*
X1663192Y-1329893D01*
X1661820Y-1327099D01*
X1661363Y-1324051D01*
X1661363Y-1230172D01*
X1660550Y-1221790D01*
X1658213Y-1214170D01*
X1654505Y-1207211D01*
X1649120Y-1200658D01*
X1491132Y-1042669D01*
X1488846Y-1039164D01*
X1488186Y-1034948D01*
X1489303Y-1030884D01*
X1491945Y-1027582D01*
X1495704Y-1025702D01*
X1499209Y-1024737D01*
X1508048Y-1020622D01*
X1516024Y-1015034D01*
X1522374Y-1008684D01*
X1525676Y-1006449D01*
X1529588Y-1005687D01*
X1533448Y-1006449D01*
X1536750Y-1008684D01*
X1746504Y-1218387D01*
X1748688Y-1221689D01*
X1749450Y-1225600D01*
X1749450Y-1400251D01*
X1748637Y-1404213D01*
X1746351Y-1407566D01*
X1742948Y-1409700D01*
X1738934Y-1410411D01*
X1735023Y-1409446D01*
X1731721Y-1407922D01*
X1722272Y-1405382D01*
X1712569Y-1404518D01*
X1702866Y-1405382D01*
X1693418Y-1407922D01*
X1684578Y-1412036D01*
X1677873Y-1416761D01*
X1674164Y-1418336D01*
X1671370Y-1418386D01*
X1671320Y-1420825D01*
X1669694Y-1424533D01*
X1664106Y-1432509D01*
X1659991Y-1441348D01*
X1657451Y-1450797D01*
X1656588Y-1460500D01*
X1657451Y-1470202D01*
X1659991Y-1479651D01*
X1664106Y-1488490D01*
X1670202Y-1497228D01*
X1671574Y-1499971D01*
X1672082Y-1503070D01*
X1672082Y-1579626D01*
X1671269Y-1583639D01*
X1668983Y-1586941D01*
X1665528Y-1589125D01*
G37*

%LPD*%
G36*
X1220266Y-1705610D02*
G01*
X1216406Y-1704848D01*
X1213104Y-1702663D01*
X896619Y-1386179D01*
X894486Y-1382979D01*
X893673Y-1379169D01*
X894334Y-1375359D01*
X895400Y-1372616D01*
X897077Y-1363776D01*
X897077Y-1354785D01*
X895400Y-1345996D01*
X892200Y-1337767D01*
X891540Y-1333601D01*
X892606Y-1329537D01*
X895350Y-1326134D01*
X1166114Y-1055370D01*
X1169416Y-1053185D01*
X1173327Y-1052423D01*
X1177188Y-1053185D01*
X1180490Y-1055370D01*
X1182674Y-1058672D01*
X1183487Y-1062583D01*
X1183487Y-1318818D01*
X1182979Y-1321917D01*
X1181608Y-1324660D01*
X1175512Y-1333398D01*
X1171397Y-1342237D01*
X1168857Y-1351686D01*
X1167993Y-1361389D01*
X1168857Y-1371092D01*
X1171397Y-1380540D01*
X1175512Y-1389380D01*
X1181100Y-1397355D01*
X1188008Y-1404264D01*
X1195984Y-1409852D01*
X1204823Y-1413967D01*
X1214272Y-1416507D01*
X1223975Y-1417370D01*
X1233678Y-1416507D01*
X1243126Y-1413967D01*
X1252016Y-1409801D01*
X1258062Y-1405788D01*
X1262126Y-1404162D01*
X1266494Y-1404416D01*
X1276045Y-1407109D01*
X1285443Y-1408023D01*
X1303223Y-1408023D01*
X1307134Y-1408785D01*
X1310436Y-1410970D01*
X1312621Y-1414272D01*
X1313383Y-1418183D01*
X1313383Y-1595120D01*
X1314196Y-1603502D01*
X1315161Y-1606651D01*
X1315567Y-1610512D01*
X1315364Y-1613052D01*
X1316228Y-1622755D01*
X1318717Y-1632153D01*
X1322832Y-1640992D01*
X1328470Y-1649018D01*
X1335328Y-1655876D01*
X1343355Y-1661515D01*
X1352194Y-1665630D01*
X1361592Y-1668170D01*
X1366215Y-1668525D01*
X1369618Y-1669440D01*
X1372514Y-1671472D01*
X1389278Y-1688287D01*
X1391462Y-1691589D01*
X1392275Y-1695450D01*
X1391462Y-1699361D01*
X1389278Y-1702663D01*
X1385976Y-1704848D01*
X1382115Y-1705610D01*
G37*

%LPD*%
G36*
X511860Y-1764030D02*
G01*
X507593Y-1762556D01*
X471271Y-1739849D01*
X460756Y-1756714D01*
X458317Y-1759407D01*
X455117Y-1761032D01*
X451459Y-1761439D01*
X447954Y-1760575D01*
X444957Y-1758492D01*
X412496Y-1726031D01*
X410311Y-1722729D01*
X409498Y-1718818D01*
X409905Y-1713941D01*
X411073Y-1711350D01*
X415137Y-1704797D01*
X411734Y-1702003D01*
X410108Y-1699006D01*
X409498Y-1695653D01*
X409498Y-1669237D01*
X410413Y-1665071D01*
X413004Y-1661617D01*
X416763Y-1659534D01*
X421030Y-1659178D01*
X425043Y-1660652D01*
X437794Y-1668576D01*
X458520Y-1635353D01*
X441655Y-1624838D01*
X435864Y-1621942D01*
X430072Y-1620418D01*
X424129Y-1620012D01*
X420979Y-1620418D01*
X416712Y-1620062D01*
X412953Y-1617980D01*
X410413Y-1614525D01*
X409498Y-1610309D01*
X409498Y-1274368D01*
X410311Y-1270457D01*
X412496Y-1267155D01*
X482142Y-1197559D01*
X485393Y-1195324D01*
X489305Y-1194562D01*
X493217Y-1195324D01*
X496468Y-1197559D01*
X499567Y-1200607D01*
X507542Y-1206195D01*
X516382Y-1210310D01*
X525830Y-1212850D01*
X535533Y-1213713D01*
X545236Y-1212850D01*
X554685Y-1210310D01*
X563524Y-1206195D01*
X571500Y-1200607D01*
X578408Y-1193698D01*
X583996Y-1185722D01*
X586181Y-1180998D01*
X588518Y-1177798D01*
X591921Y-1175766D01*
X595833Y-1175156D01*
X599694Y-1176121D01*
X603148Y-1177696D01*
X612597Y-1180236D01*
X622300Y-1181100D01*
X632002Y-1180236D01*
X641451Y-1177696D01*
X650748Y-1173378D01*
X654761Y-1172413D01*
X658825Y-1173175D01*
X662279Y-1175461D01*
X664514Y-1178915D01*
X667258Y-1185976D01*
X670610Y-1191463D01*
X671982Y-1194917D01*
X671982Y-1198676D01*
X670610Y-1202131D01*
X667258Y-1207617D01*
X664006Y-1215999D01*
X663448Y-1218996D01*
X662432Y-1221892D01*
X660603Y-1224330D01*
X526948Y-1358036D01*
X521563Y-1364538D01*
X517855Y-1371549D01*
X515518Y-1379118D01*
X514705Y-1387500D01*
X514705Y-1454810D01*
X514096Y-1458264D01*
X512318Y-1461363D01*
X508050Y-1464513D01*
X503580Y-1468424D01*
X499618Y-1473555D01*
X468325Y-1523593D01*
X465480Y-1529384D01*
X463905Y-1535176D01*
X463499Y-1541119D01*
X464261Y-1547012D01*
X466191Y-1552702D01*
X469138Y-1557883D01*
X473100Y-1562354D01*
X478231Y-1566316D01*
X568096Y-1622501D01*
X573887Y-1625346D01*
X579678Y-1626920D01*
X585622Y-1627327D01*
X591566Y-1626565D01*
X597204Y-1624634D01*
X602386Y-1621688D01*
X606856Y-1617776D01*
X610819Y-1612646D01*
X642112Y-1562608D01*
X644956Y-1556816D01*
X646531Y-1551025D01*
X646938Y-1545082D01*
X646176Y-1539138D01*
X644245Y-1533499D01*
X641299Y-1528318D01*
X637336Y-1523796D01*
X632256Y-1519885D01*
X600506Y-1500022D01*
X597966Y-1497787D01*
X596290Y-1494790D01*
X595731Y-1491437D01*
X595731Y-1408023D01*
X596493Y-1404112D01*
X598678Y-1400810D01*
X645007Y-1354531D01*
X648309Y-1352296D01*
X652170Y-1351534D01*
X656082Y-1352296D01*
X659384Y-1354531D01*
X661568Y-1357833D01*
X662330Y-1361694D01*
X662330Y-1363776D01*
X664006Y-1372616D01*
X667258Y-1380998D01*
X671982Y-1388618D01*
X678027Y-1395272D01*
X685190Y-1400657D01*
X693216Y-1404670D01*
X701852Y-1407109D01*
X711250Y-1408023D01*
X799693Y-1408023D01*
X803554Y-1408785D01*
X806856Y-1410970D01*
X908100Y-1512214D01*
X910285Y-1515516D01*
X911098Y-1519428D01*
X910285Y-1523288D01*
X908100Y-1526590D01*
X904798Y-1528775D01*
X900937Y-1529588D01*
X769010Y-1529588D01*
X760628Y-1530400D01*
X753059Y-1532686D01*
X746048Y-1536446D01*
X739546Y-1541780D01*
X563321Y-1718005D01*
X559917Y-1720291D01*
X555904Y-1721002D01*
X551891Y-1720088D01*
X548589Y-1717700D01*
X546506Y-1714195D01*
X545998Y-1710131D01*
X546252Y-1706219D01*
X545490Y-1700275D01*
X543560Y-1694637D01*
X540613Y-1689455D01*
X536651Y-1684934D01*
X531520Y-1681022D01*
X514654Y-1670456D01*
X493928Y-1703679D01*
X534619Y-1729079D01*
X537311Y-1731518D01*
X538988Y-1734769D01*
X539394Y-1738375D01*
X538480Y-1741932D01*
X536397Y-1744878D01*
X520192Y-1761134D01*
X516382Y-1763522D01*
G37*

%LPD*%
G36*
X239166Y-1810410D02*
G01*
X235305Y-1809699D01*
X232003Y-1807565D01*
X229768Y-1804365D01*
X223824Y-1791004D01*
X216560Y-1779016D01*
X207873Y-1768043D01*
X197815Y-1758340D01*
X186588Y-1749958D01*
X174396Y-1743100D01*
X161442Y-1737817D01*
X147878Y-1734312D01*
X134010Y-1732483D01*
X119989Y-1732483D01*
X106121Y-1734312D01*
X92557Y-1737817D01*
X79603Y-1743100D01*
X67411Y-1749958D01*
X56184Y-1758340D01*
X46126Y-1768043D01*
X43992Y-1770735D01*
X40792Y-1773377D01*
X36830Y-1774545D01*
X32715Y-1773986D01*
X29159Y-1771853D01*
X26771Y-1768449D01*
X25908Y-1764385D01*
X25908Y-1664614D01*
X26720Y-1660652D01*
X29006Y-1657299D01*
X32410Y-1655114D01*
X36372Y-1654454D01*
X40335Y-1655368D01*
X43586Y-1657807D01*
X51003Y-1665986D01*
X61671Y-1675028D01*
X73406Y-1682648D01*
X86004Y-1688744D01*
X99314Y-1693164D01*
X113030Y-1695805D01*
X127000Y-1696720D01*
X140970Y-1695805D01*
X154686Y-1693164D01*
X167995Y-1688744D01*
X180594Y-1682648D01*
X192328Y-1675028D01*
X202996Y-1665986D01*
X212394Y-1655622D01*
X220421Y-1644142D01*
X226872Y-1631696D01*
X229514Y-1624533D01*
X231597Y-1621129D01*
X234899Y-1618792D01*
X238810Y-1617878D01*
X242773Y-1618589D01*
X246125Y-1620774D01*
X248412Y-1624126D01*
X249224Y-1628038D01*
X249224Y-1800250D01*
X248462Y-1804111D01*
X246278Y-1807362D01*
X243027Y-1809597D01*
G37*

%LPD*%
G36*
X847750Y-1823720D02*
G01*
X843838Y-1822907D01*
X840536Y-1820672D01*
X804011Y-1783842D01*
X801776Y-1780336D01*
X801116Y-1776222D01*
X802132Y-1772208D01*
X804113Y-1768246D01*
X805637Y-1762506D01*
X806043Y-1756511D01*
X805281Y-1750618D01*
X803402Y-1744929D01*
X800404Y-1739747D01*
X796493Y-1735277D01*
X791362Y-1731314D01*
X724154Y-1689354D01*
X721461Y-1686864D01*
X719836Y-1683664D01*
X719378Y-1680057D01*
X720293Y-1676501D01*
X722376Y-1673555D01*
X782320Y-1613560D01*
X785622Y-1611376D01*
X789533Y-1610563D01*
X911809Y-1610563D01*
X914908Y-1611071D01*
X917651Y-1612442D01*
X926388Y-1618538D01*
X935228Y-1622653D01*
X944676Y-1625193D01*
X954379Y-1626057D01*
X964082Y-1625193D01*
X973531Y-1622653D01*
X982370Y-1618538D01*
X990346Y-1612950D01*
X992428Y-1610918D01*
X995680Y-1608683D01*
X999591Y-1607921D01*
X1003503Y-1608683D01*
X1006754Y-1610918D01*
X1170279Y-1774393D01*
X1176832Y-1779778D01*
X1180541Y-1781759D01*
X1183741Y-1784451D01*
X1185621Y-1788261D01*
X1185773Y-1792478D01*
X1183995Y-1796643D01*
X1177848Y-1809140D01*
X1177290Y-1810816D01*
X1175308Y-1814271D01*
X1172159Y-1816658D01*
X1168349Y-1817674D01*
X1164386Y-1817166D01*
X1160983Y-1815185D01*
X1156055Y-1810867D01*
X1144422Y-1803095D01*
X1131925Y-1796948D01*
X1118717Y-1792478D01*
X1105001Y-1789734D01*
X1091082Y-1788820D01*
X1077163Y-1789734D01*
X1063498Y-1792478D01*
X1050239Y-1796948D01*
X1037742Y-1803095D01*
X1026160Y-1810867D01*
X1015492Y-1820214D01*
X1012037Y-1822805D01*
X1007871Y-1823720D01*
G37*

%LPD*%
G36*
X673811Y-1981809D02*
G01*
X670864Y-1981352D01*
X667105Y-1980234D01*
X663600Y-1978355D01*
X661060Y-1975256D01*
X659536Y-1972360D01*
X655726Y-1967788D01*
X651154Y-1963978D01*
X645871Y-1961184D01*
X640130Y-1959406D01*
X633730Y-1958797D01*
X554634Y-1958797D01*
X550773Y-1958035D01*
X547471Y-1955800D01*
X545287Y-1952548D01*
X544474Y-1948637D01*
X544474Y-1855622D01*
X545287Y-1851710D01*
X547471Y-1848408D01*
X620166Y-1775714D01*
X623163Y-1773631D01*
X626719Y-1772767D01*
X630326Y-1773174D01*
X633577Y-1774850D01*
X637336Y-1777796D01*
X727252Y-1833930D01*
X735431Y-1837842D01*
X737463Y-1839468D01*
X796137Y-1898599D01*
X802792Y-1903577D01*
X809904Y-1907133D01*
X817575Y-1909318D01*
X825957Y-1910130D01*
X890727Y-1910130D01*
X895146Y-1911096D01*
X898652Y-1913889D01*
X900633Y-1917954D01*
X900633Y-1922475D01*
X898702Y-1926539D01*
X894181Y-1929892D01*
X882599Y-1937613D01*
X872083Y-1946859D01*
X862888Y-1957324D01*
X855167Y-1968957D01*
X851611Y-1976120D01*
X849376Y-1979117D01*
X846175Y-1981098D01*
X842467Y-1981809D01*
G37*

%LPD*%
G36*
X2146960Y-2008073D02*
G01*
X2142845Y-2007565D01*
X2139289Y-2005380D01*
X2136851Y-2002028D01*
X2135987Y-1997964D01*
X2135987Y-1939036D01*
X2136851Y-1934972D01*
X2139289Y-1931619D01*
X2142845Y-1929485D01*
X2146960Y-1928926D01*
X2150973Y-1930095D01*
X2153818Y-1931619D01*
X2159558Y-1933346D01*
X2165959Y-1934006D01*
X2185873Y-1934006D01*
X2185873Y-1894839D01*
X2146147Y-1894839D01*
X2142286Y-1894078D01*
X2138984Y-1891893D01*
X2136800Y-1888591D01*
X2135987Y-1884680D01*
X2135987Y-1862328D01*
X2136800Y-1858416D01*
X2138984Y-1855114D01*
X2142286Y-1852930D01*
X2146147Y-1852168D01*
X2185873Y-1852168D01*
X2185873Y-1813001D01*
X2165959Y-1813001D01*
X2159558Y-1813610D01*
X2153818Y-1815338D01*
X2148586Y-1818182D01*
X2143963Y-1821942D01*
X2137562Y-1829917D01*
X2134311Y-1831797D01*
X2130602Y-1832356D01*
X2126894Y-1831492D01*
X2123795Y-1829358D01*
X2058873Y-1764436D01*
X2056587Y-1760931D01*
X2055926Y-1756816D01*
X2056942Y-1752752D01*
X2059533Y-1749501D01*
X2063242Y-1747520D01*
X2068474Y-1745996D01*
X2074214Y-1743049D01*
X2163114Y-1685289D01*
X2168144Y-1681276D01*
X2172004Y-1676704D01*
X2174900Y-1671472D01*
X2176729Y-1665782D01*
X2177389Y-1659839D01*
X2176881Y-1653895D01*
X2175205Y-1648155D01*
X2172208Y-1642414D01*
X2140102Y-1592935D01*
X2136038Y-1587855D01*
X2131466Y-1584045D01*
X2126234Y-1581150D01*
X2120544Y-1579321D01*
X2114651Y-1578660D01*
X2108708Y-1579168D01*
X2102967Y-1580845D01*
X2097227Y-1583791D01*
X2045970Y-1617116D01*
X2042769Y-1618437D01*
X2039366Y-1618691D01*
X2036064Y-1617726D01*
X2033219Y-1615744D01*
X1982825Y-1565300D01*
X1981454Y-1563674D01*
X1966010Y-1539849D01*
X1962150Y-1540560D01*
X1958289Y-1539748D01*
X1955038Y-1537563D01*
X1938883Y-1521409D01*
X1936496Y-1517599D01*
X1935937Y-1513128D01*
X1937410Y-1508912D01*
X1940509Y-1505712D01*
X1942846Y-1504188D01*
X1920493Y-1469745D01*
X1919274Y-1467104D01*
X1918817Y-1464208D01*
X1918817Y-1439824D01*
X1919630Y-1435811D01*
X1921916Y-1432509D01*
X1925370Y-1430324D01*
X1929333Y-1429664D01*
X1933295Y-1430578D01*
X1936648Y-1432153D01*
X1946097Y-1434693D01*
X1955800Y-1435557D01*
X1965502Y-1434693D01*
X1967839Y-1434084D01*
X1972056Y-1433830D01*
X1976018Y-1435354D01*
X1979015Y-1438351D01*
X1998370Y-1468120D01*
X2041042Y-1440434D01*
X2036622Y-1433576D01*
X2032558Y-1428496D01*
X2027986Y-1424686D01*
X2022754Y-1421790D01*
X2017064Y-1419961D01*
X2013457Y-1419555D01*
X2009800Y-1418437D01*
X2006803Y-1416050D01*
X2004923Y-1412697D01*
X2004466Y-1408887D01*
X2005380Y-1405178D01*
X2008378Y-1398727D01*
X2010918Y-1389278D01*
X2011781Y-1379575D01*
X2010918Y-1369872D01*
X2008378Y-1360424D01*
X2004263Y-1351584D01*
X1998167Y-1342847D01*
X1996795Y-1340104D01*
X1996287Y-1337005D01*
X1996287Y-1061720D01*
X1997100Y-1057808D01*
X1999284Y-1054557D01*
X2002586Y-1052322D01*
X2006447Y-1051560D01*
X2040331Y-1051560D01*
X2046782Y-1050899D01*
X2051304Y-1049528D01*
X2055063Y-1049172D01*
X2058670Y-1050137D01*
X2061718Y-1052372D01*
X2063699Y-1055573D01*
X2064410Y-1059281D01*
X2064410Y-1175715D01*
X2065223Y-1184097D01*
X2067560Y-1191666D01*
X2071268Y-1198676D01*
X2076653Y-1205179D01*
X2081733Y-1210310D01*
X2088286Y-1215644D01*
X2092807Y-1218082D01*
X2095855Y-1220571D01*
X2097735Y-1224076D01*
X2097989Y-1229309D01*
X2097989Y-1242618D01*
X2143760Y-1242618D01*
X2143760Y-1232662D01*
X2144522Y-1228801D01*
X2146706Y-1225499D01*
X2150008Y-1223314D01*
X2153920Y-1222502D01*
X2185314Y-1222502D01*
X2189175Y-1223314D01*
X2192477Y-1225499D01*
X2196693Y-1229664D01*
X2198878Y-1232966D01*
X2199640Y-1236878D01*
X2199640Y-1242618D01*
X2202942Y-1242618D01*
X2206853Y-1243380D01*
X2210155Y-1245565D01*
X2212340Y-1248867D01*
X2213102Y-1252778D01*
X2213102Y-1285494D01*
X2212340Y-1289354D01*
X2210155Y-1292656D01*
X2206853Y-1294841D01*
X2202942Y-1295654D01*
X2199640Y-1295654D01*
X2199640Y-1339951D01*
X2202942Y-1339951D01*
X2206853Y-1340713D01*
X2210155Y-1342948D01*
X2212340Y-1346200D01*
X2213102Y-1350111D01*
X2213102Y-1575511D01*
X2213914Y-1583893D01*
X2216251Y-1591462D01*
X2219960Y-1598472D01*
X2225344Y-1604975D01*
X2354935Y-1734616D01*
X2357323Y-1738375D01*
X2357882Y-1742846D01*
X2356408Y-1747062D01*
X2353310Y-1750314D01*
X2347671Y-1753971D01*
X2337003Y-1763014D01*
X2327605Y-1773377D01*
X2319578Y-1784857D01*
X2313127Y-1797304D01*
X2308301Y-1810410D01*
X2307488Y-1813966D01*
X2305761Y-1817725D01*
X2302713Y-1820468D01*
X2298852Y-1821789D01*
X2294737Y-1821484D01*
X2291130Y-1819605D01*
X2289403Y-1818182D01*
X2284120Y-1815338D01*
X2278430Y-1813610D01*
X2271979Y-1813001D01*
X2252065Y-1813001D01*
X2252065Y-1852168D01*
X2295652Y-1852168D01*
X2299157Y-1852777D01*
X2302256Y-1854555D01*
X2304491Y-1857298D01*
X2305659Y-1860702D01*
X2306523Y-1865782D01*
X2311958Y-1884476D01*
X2311247Y-1888439D01*
X2309063Y-1891792D01*
X2305710Y-1894078D01*
X2301798Y-1894839D01*
X2252065Y-1894839D01*
X2252065Y-1934006D01*
X2271979Y-1934006D01*
X2278430Y-1933346D01*
X2284120Y-1931619D01*
X2289403Y-1928825D01*
X2294026Y-1925015D01*
X2297785Y-1920443D01*
X2300630Y-1915160D01*
X2302357Y-1909419D01*
X2302764Y-1905203D01*
X2304034Y-1901240D01*
X2306828Y-1898091D01*
X2310638Y-1896313D01*
X2314854Y-1896262D01*
X2318715Y-1897888D01*
X2321560Y-1900936D01*
X2323388Y-1903984D01*
X2327706Y-1909419D01*
X2329535Y-1912874D01*
X2329891Y-1916785D01*
X2328722Y-1920544D01*
X2326233Y-1923592D01*
X2320188Y-1928571D01*
X2267254Y-1981454D01*
X2261920Y-1988007D01*
X2255824Y-1999538D01*
X2252421Y-2002078D01*
X2248204Y-2002993D01*
X2166010Y-2002993D01*
X2159558Y-2003653D01*
X2153818Y-2005380D01*
X2150973Y-2006904D01*
G37*

%LPC*%
G36*
X2042922Y-1536801D02*
G01*
X2059635Y-1525930D01*
X2064664Y-1521917D01*
X2068525Y-1517345D01*
X2071420Y-1512112D01*
X2073249Y-1506423D01*
X2073910Y-1500479D01*
X2073402Y-1494536D01*
X2071725Y-1488795D01*
X2068728Y-1483055D01*
X2064308Y-1476197D01*
X2021636Y-1503934D01*
G37*
G36*
X2128977Y-1339951D02*
G01*
X2143760Y-1339951D01*
X2143760Y-1295654D01*
X2097989Y-1295654D01*
X2097989Y-1308963D01*
X2098649Y-1315364D01*
X2100376Y-1321104D01*
X2103170Y-1326388D01*
X2106980Y-1330960D01*
X2111603Y-1334770D01*
X2116836Y-1337564D01*
X2122576Y-1339342D01*
G37*

%LPD*%
G36*
X408127Y-2426919D02*
G01*
X404977Y-2426411D01*
X402132Y-2424938D01*
X399897Y-2422702D01*
X379120Y-2394153D01*
X374853Y-2389327D01*
X370078Y-2385720D01*
X364693Y-2383129D01*
X362204Y-2382469D01*
X358394Y-2380538D01*
X355701Y-2377287D01*
X354634Y-2373172D01*
X355244Y-2369007D01*
X357581Y-2365451D01*
X450138Y-2272893D01*
X453288Y-2270861D01*
X456895Y-2270048D01*
X460603Y-2270658D01*
X463804Y-2272538D01*
X466140Y-2275433D01*
X470357Y-2283307D01*
X473252Y-2287574D01*
X473964Y-2290521D01*
X474472Y-2296160D01*
X477012Y-2305558D01*
X481126Y-2314397D01*
X486714Y-2322423D01*
X493623Y-2329281D01*
X501599Y-2334920D01*
X510438Y-2339035D01*
X519887Y-2341575D01*
X529590Y-2342388D01*
X539292Y-2341575D01*
X548741Y-2339035D01*
X557580Y-2334920D01*
X565556Y-2329281D01*
X572465Y-2322423D01*
X578053Y-2314397D01*
X582168Y-2305558D01*
X584708Y-2296160D01*
X585571Y-2286457D01*
X584708Y-2276703D01*
X582168Y-2267305D01*
X578053Y-2258466D01*
X572465Y-2250440D01*
X565556Y-2243582D01*
X557580Y-2237943D01*
X550367Y-2234590D01*
X547268Y-2232355D01*
X545185Y-2229154D01*
X544474Y-2225395D01*
X544474Y-2089962D01*
X545287Y-2086102D01*
X547471Y-2082800D01*
X550773Y-2080564D01*
X554634Y-2079802D01*
X633730Y-2079802D01*
X640130Y-2079193D01*
X645871Y-2077415D01*
X651154Y-2074621D01*
X655726Y-2070862D01*
X659282Y-2066493D01*
X662787Y-2063800D01*
X667156Y-2062784D01*
X842518Y-2062784D01*
X846175Y-2063496D01*
X849376Y-2065477D01*
X851611Y-2068474D01*
X855167Y-2075637D01*
X859637Y-2082292D01*
X861161Y-2085949D01*
X861161Y-2089912D01*
X859637Y-2093620D01*
X856843Y-2096414D01*
X838555Y-2102662D01*
X826058Y-2108860D01*
X814425Y-2116582D01*
X803960Y-2125827D01*
X794766Y-2136292D01*
X786993Y-2147925D01*
X780796Y-2160422D01*
X776325Y-2173630D01*
X773633Y-2187295D01*
X772718Y-2201265D01*
X773633Y-2215184D01*
X776325Y-2228850D01*
X778916Y-2236470D01*
X779424Y-2240178D01*
X778611Y-2243836D01*
X776478Y-2246884D01*
X599440Y-2423922D01*
X596138Y-2426106D01*
X592277Y-2426919D01*
G37*

%LPD*%
G36*
X37947Y-2485085D02*
G01*
X33528Y-2484932D01*
X29616Y-2482951D01*
X26873Y-2479446D01*
X25908Y-2475128D01*
X25908Y-2172614D01*
X26720Y-2168652D01*
X29006Y-2165299D01*
X32410Y-2163114D01*
X36372Y-2162454D01*
X40335Y-2163368D01*
X43586Y-2165807D01*
X51003Y-2173986D01*
X61671Y-2183028D01*
X73406Y-2190648D01*
X81280Y-2194458D01*
X81280Y-2141220D01*
X36068Y-2141220D01*
X32156Y-2140458D01*
X28905Y-2138222D01*
X26670Y-2134971D01*
X25908Y-2131060D01*
X25908Y-2059939D01*
X26670Y-2056028D01*
X28905Y-2052777D01*
X32156Y-2050542D01*
X36068Y-2049780D01*
X81280Y-2049780D01*
X81280Y-1996439D01*
X79603Y-1997100D01*
X67411Y-2003958D01*
X56184Y-2012340D01*
X46126Y-2022043D01*
X43992Y-2024735D01*
X40792Y-2027377D01*
X36830Y-2028545D01*
X32715Y-2027986D01*
X29159Y-2025853D01*
X26771Y-2022449D01*
X25908Y-2018385D01*
X25908Y-1918614D01*
X26720Y-1914652D01*
X29006Y-1911299D01*
X32410Y-1909114D01*
X36372Y-1908454D01*
X40335Y-1909368D01*
X43586Y-1911807D01*
X51003Y-1919986D01*
X61671Y-1929028D01*
X73406Y-1936648D01*
X86004Y-1942744D01*
X99314Y-1947164D01*
X113030Y-1949805D01*
X127000Y-1950720D01*
X140970Y-1949805D01*
X154686Y-1947164D01*
X167995Y-1942744D01*
X180594Y-1936648D01*
X192328Y-1929028D01*
X202996Y-1919986D01*
X212394Y-1909622D01*
X220421Y-1898142D01*
X226364Y-1886712D01*
X228955Y-1883511D01*
X232562Y-1881632D01*
X236677Y-1881327D01*
X240538Y-1882648D01*
X243586Y-1885442D01*
X247751Y-1891182D01*
X249224Y-1894027D01*
X249732Y-1897176D01*
X249732Y-1953818D01*
X250342Y-1960219D01*
X252069Y-1965960D01*
X254914Y-1971192D01*
X258673Y-1975815D01*
X263296Y-1979625D01*
X268579Y-1982419D01*
X274269Y-1984146D01*
X280720Y-1984806D01*
X370382Y-1984806D01*
X374243Y-1985568D01*
X377545Y-1987753D01*
X379730Y-1991055D01*
X380542Y-1994966D01*
X380542Y-2043633D01*
X379730Y-2047544D01*
X377545Y-2050796D01*
X374243Y-2053031D01*
X370382Y-2053793D01*
X366826Y-2053793D01*
X366826Y-2092960D01*
X370382Y-2092960D01*
X374243Y-2093722D01*
X377545Y-2095906D01*
X379730Y-2099208D01*
X380542Y-2103120D01*
X380542Y-2125472D01*
X379730Y-2129383D01*
X377545Y-2132685D01*
X374243Y-2134870D01*
X370382Y-2135632D01*
X366826Y-2135632D01*
X366826Y-2174798D01*
X370382Y-2174798D01*
X374243Y-2175560D01*
X377545Y-2177796D01*
X379730Y-2181098D01*
X380542Y-2184958D01*
X380542Y-2223719D01*
X379730Y-2227580D01*
X377545Y-2230882D01*
X215696Y-2392730D01*
X210362Y-2399284D01*
X206603Y-2406243D01*
X204317Y-2413914D01*
X203911Y-2417318D01*
X202692Y-2421229D01*
X199999Y-2424277D01*
X196342Y-2426055D01*
X192278Y-2426258D01*
X188468Y-2424887D01*
X185521Y-2422042D01*
X179374Y-2413355D01*
X172516Y-2406446D01*
X164490Y-2400858D01*
X155651Y-2396744D01*
X146253Y-2394204D01*
X136550Y-2393340D01*
X126796Y-2394204D01*
X117398Y-2396744D01*
X108559Y-2400858D01*
X100533Y-2406446D01*
X93675Y-2413355D01*
X88036Y-2421331D01*
X83921Y-2430170D01*
X81432Y-2439619D01*
X81026Y-2444191D01*
X80111Y-2447594D01*
X78079Y-2450490D01*
X53086Y-2475331D01*
X42062Y-2483307D01*
G37*

%LPC*%
G36*
X172720Y-2194458D02*
G01*
X180594Y-2190648D01*
X192328Y-2183028D01*
X202996Y-2173986D01*
X212394Y-2163622D01*
X220421Y-2152142D01*
X226110Y-2141220D01*
X172720Y-2141220D01*
G37*
G36*
X280720Y-2174798D02*
G01*
X300634Y-2174798D01*
X300634Y-2135632D01*
X249936Y-2135632D01*
X249682Y-2135987D01*
X249682Y-2143810D01*
X250342Y-2150262D01*
X252069Y-2155952D01*
X254863Y-2161235D01*
X258673Y-2165858D01*
X263296Y-2169617D01*
X268579Y-2172462D01*
X274269Y-2174189D01*
G37*
G36*
X256286Y-2092960D02*
G01*
X300634Y-2092960D01*
X300634Y-2053793D01*
X280720Y-2053793D01*
X274269Y-2054453D01*
X268579Y-2056180D01*
X263296Y-2058974D01*
X258673Y-2062784D01*
X254863Y-2067356D01*
X253796Y-2069439D01*
X256032Y-2083714D01*
G37*
G36*
X172720Y-2049780D02*
G01*
X225958Y-2049780D01*
X223824Y-2045004D01*
X216560Y-2033016D01*
X207873Y-2022043D01*
X197815Y-2012340D01*
X186588Y-2003958D01*
X174396Y-1997100D01*
X172720Y-1996439D01*
G37*

%LPD*%
G36*
X1744319Y-2887675D02*
G01*
X1740509Y-2886964D01*
X1737207Y-2884881D01*
X1734972Y-2881680D01*
X1705660Y-2815844D01*
X1704746Y-2811729D01*
X1704746Y-2672892D01*
X1703933Y-2664510D01*
X1701647Y-2656890D01*
X1697888Y-2649931D01*
X1692554Y-2643378D01*
X1644345Y-2595219D01*
X1642262Y-2592120D01*
X1641398Y-2588463D01*
X1641906Y-2584754D01*
X1644497Y-2577185D01*
X1647240Y-2563469D01*
X1648155Y-2549550D01*
X1647240Y-2535631D01*
X1644497Y-2521966D01*
X1641144Y-2512110D01*
X1640636Y-2508453D01*
X1641449Y-2504846D01*
X1643481Y-2501747D01*
X1646529Y-2499614D01*
X1650136Y-2498699D01*
X1664258Y-2497785D01*
X1677924Y-2495092D01*
X1687880Y-2491689D01*
X1691589Y-2491181D01*
X1695246Y-2492044D01*
X1698345Y-2494127D01*
X1829460Y-2625242D01*
X1831797Y-2629001D01*
X1832406Y-2633370D01*
X1828850Y-2643632D01*
X1828038Y-2649524D01*
X1828393Y-2655468D01*
X1829866Y-2661259D01*
X1832508Y-2666644D01*
X1836115Y-2671419D01*
X1840941Y-2675686D01*
X1900529Y-2718968D01*
X1903425Y-2722270D01*
X1904695Y-2726436D01*
X1904085Y-2730703D01*
X1901748Y-2734411D01*
X1751431Y-2884728D01*
X1748180Y-2886913D01*
G37*

%LPD*%
G36*
X1404162Y-3027527D02*
G01*
X1400302Y-3026765D01*
X1397000Y-3024581D01*
X1394764Y-3021279D01*
X1394002Y-3017367D01*
X1394002Y-2976270D01*
X1394764Y-2972409D01*
X1397000Y-2969107D01*
X1400098Y-2965958D01*
X1405483Y-2959455D01*
X1409192Y-2952445D01*
X1411528Y-2944876D01*
X1412341Y-2936494D01*
X1412341Y-2743454D01*
X1413002Y-2739796D01*
X1414983Y-2736596D01*
X1417980Y-2734360D01*
X1425143Y-2730855D01*
X1436776Y-2723083D01*
X1447241Y-2713888D01*
X1456436Y-2703372D01*
X1464208Y-2691790D01*
X1470355Y-2679293D01*
X1474876Y-2666085D01*
X1477721Y-2651150D01*
X1479092Y-2647696D01*
X1481632Y-2644952D01*
X1484934Y-2643327D01*
X1488643Y-2642971D01*
X1492199Y-2643987D01*
X1500632Y-2648153D01*
X1513840Y-2652623D01*
X1527505Y-2655316D01*
X1541475Y-2656230D01*
X1555394Y-2655316D01*
X1569059Y-2652623D01*
X1576628Y-2650032D01*
X1580337Y-2649524D01*
X1583994Y-2650388D01*
X1587093Y-2652471D01*
X1620774Y-2686202D01*
X1622958Y-2689504D01*
X1623771Y-2693365D01*
X1623771Y-2791155D01*
X1623009Y-2794965D01*
X1620926Y-2798216D01*
X1617726Y-2800451D01*
X1603146Y-2806903D01*
X1597507Y-2810103D01*
X1592986Y-2814015D01*
X1589328Y-2818739D01*
X1586687Y-2824073D01*
X1585061Y-2829814D01*
X1584655Y-2835808D01*
X1585417Y-2841701D01*
X1587449Y-2847848D01*
X1611934Y-2902915D01*
X1612798Y-2906826D01*
X1612087Y-2910789D01*
X1609902Y-2914142D01*
X1606600Y-2916428D01*
X1602638Y-2917190D01*
X1548688Y-2917190D01*
X1540306Y-2918002D01*
X1532686Y-2920339D01*
X1525727Y-2924048D01*
X1519174Y-2929432D01*
X1424025Y-3024581D01*
X1420723Y-3026765D01*
X1416862Y-3027527D01*
G37*

%LPD*%
G36*
X1858873Y-3274110D02*
G01*
X1854504Y-3273094D01*
X1850999Y-3270351D01*
X1849018Y-3266389D01*
X1848916Y-3261918D01*
X1850694Y-3257854D01*
X1861616Y-3249066D01*
X2091639Y-3019044D01*
X2097024Y-3012490D01*
X2100732Y-3005531D01*
X2103069Y-2997911D01*
X2103882Y-2989529D01*
X2103882Y-2967482D01*
X2104339Y-2964383D01*
X2105761Y-2961589D01*
X2109673Y-2958033D01*
X2113991Y-2953207D01*
X2148687Y-2905455D01*
X2151938Y-2899867D01*
X2153920Y-2894228D01*
X2154732Y-2888335D01*
X2154377Y-2882341D01*
X2152853Y-2876600D01*
X2150262Y-2871216D01*
X2146655Y-2866440D01*
X2141829Y-2862122D01*
X2056028Y-2799842D01*
X2050491Y-2796590D01*
X2044801Y-2794609D01*
X2038908Y-2793796D01*
X2032965Y-2794152D01*
X2027174Y-2795676D01*
X2021789Y-2798267D01*
X2017064Y-2801874D01*
X2012746Y-2806700D01*
X1978050Y-2854452D01*
X1974799Y-2860040D01*
X1972818Y-2865678D01*
X1972005Y-2871571D01*
X1972360Y-2877515D01*
X1973884Y-2883306D01*
X1976475Y-2888691D01*
X1980082Y-2893466D01*
X1984908Y-2897733D01*
X2018690Y-2922270D01*
X2020925Y-2924505D01*
X2022348Y-2927350D01*
X2022856Y-2930499D01*
X2022856Y-2969056D01*
X2022093Y-2972917D01*
X2019909Y-2976219D01*
X1934260Y-3061868D01*
X1930603Y-3064205D01*
X1926234Y-3064814D01*
X1922068Y-3063494D01*
X1884476Y-3080207D01*
X1891334Y-3095599D01*
X1892198Y-3099562D01*
X1891436Y-3103524D01*
X1889201Y-3106877D01*
X1872284Y-3123844D01*
X1869033Y-3126028D01*
X1865172Y-3126841D01*
X1861362Y-3126130D01*
X1858060Y-3123996D01*
X1855825Y-3120796D01*
X1845462Y-3097580D01*
X1809699Y-3113481D01*
X1817776Y-3131718D01*
X1820976Y-3137306D01*
X1824888Y-3141827D01*
X1829612Y-3145485D01*
X1834032Y-3148533D01*
X1836013Y-3151835D01*
X1836623Y-3155594D01*
X1835810Y-3159302D01*
X1833625Y-3162452D01*
X1818843Y-3177286D01*
X1815541Y-3179470D01*
X1811629Y-3180283D01*
X1767586Y-3180283D01*
X1763979Y-3179622D01*
X1760829Y-3177743D01*
X1758594Y-3174847D01*
X1757476Y-3171342D01*
X1756816Y-3165906D01*
X1754784Y-3159760D01*
X1744268Y-3136138D01*
X1743405Y-3132175D01*
X1744116Y-3128213D01*
X1746351Y-3124809D01*
X1749450Y-3121710D01*
X1752346Y-3119678D01*
X1755749Y-3118764D01*
X1763826Y-3118104D01*
X1773224Y-3115564D01*
X1782064Y-3111449D01*
X1794103Y-3102914D01*
X1795678Y-3102406D01*
X1797405Y-3098342D01*
X1802587Y-3090926D01*
X1806702Y-3082086D01*
X1809242Y-3072688D01*
X1810054Y-3062986D01*
X1809242Y-3053232D01*
X1808581Y-3050946D01*
X1808276Y-3047390D01*
X1809242Y-3043936D01*
X1811324Y-3041040D01*
X1814271Y-3039008D01*
X1818538Y-3037128D01*
X1797862Y-2990596D01*
X1790395Y-2993948D01*
X1784756Y-2997149D01*
X1780235Y-3001060D01*
X1777187Y-3004972D01*
X1774189Y-3007563D01*
X1770481Y-3008833D01*
X1766519Y-3008579D01*
X1763522Y-3007766D01*
X1759610Y-3005734D01*
X1756918Y-3002178D01*
X1756003Y-2997860D01*
X1756968Y-2993593D01*
X1759712Y-2990088D01*
X1764690Y-2985973D01*
X2081987Y-2668727D01*
X2087321Y-2662174D01*
X2091080Y-2655214D01*
X2093366Y-2647594D01*
X2094179Y-2639212D01*
X2094179Y-2465324D01*
X2094992Y-2461463D01*
X2097176Y-2458161D01*
X2100478Y-2455976D01*
X2104339Y-2455164D01*
X2108250Y-2455976D01*
X2111552Y-2458161D01*
X2113483Y-2460091D01*
X2119985Y-2465425D01*
X2126996Y-2469184D01*
X2132584Y-2470861D01*
X2136089Y-2472740D01*
X2138629Y-2475788D01*
X2140153Y-2478735D01*
X2143963Y-2483358D01*
X2148586Y-2487117D01*
X2153818Y-2489962D01*
X2159558Y-2491689D01*
X2166010Y-2492298D01*
X2271979Y-2492298D01*
X2278430Y-2491689D01*
X2284120Y-2489962D01*
X2289403Y-2487117D01*
X2294026Y-2483358D01*
X2297785Y-2478735D01*
X2300630Y-2473452D01*
X2302357Y-2467762D01*
X2303018Y-2461310D01*
X2303018Y-2402281D01*
X2302357Y-2395880D01*
X2300630Y-2390140D01*
X2297785Y-2384856D01*
X2294026Y-2380284D01*
X2289403Y-2376474D01*
X2284120Y-2373680D01*
X2278430Y-2371953D01*
X2271979Y-2371293D01*
X2166010Y-2371293D01*
X2159558Y-2371953D01*
X2153818Y-2373680D01*
X2152497Y-2374392D01*
X2148382Y-2375560D01*
X2144166Y-2374900D01*
X2140559Y-2372614D01*
X2138984Y-2371039D01*
X2136800Y-2367737D01*
X2135987Y-2363825D01*
X2135987Y-2307336D01*
X2136851Y-2303272D01*
X2139289Y-2299919D01*
X2142845Y-2297734D01*
X2146960Y-2297226D01*
X2150973Y-2298395D01*
X2153818Y-2299919D01*
X2159558Y-2301646D01*
X2166010Y-2302306D01*
X2185873Y-2302306D01*
X2185873Y-2263140D01*
X2146147Y-2263140D01*
X2142286Y-2262378D01*
X2138984Y-2260193D01*
X2136800Y-2256891D01*
X2135987Y-2252980D01*
X2135987Y-2230628D01*
X2136800Y-2226716D01*
X2138984Y-2223414D01*
X2142286Y-2221230D01*
X2146147Y-2220468D01*
X2185873Y-2220468D01*
X2185873Y-2181301D01*
X2166010Y-2181301D01*
X2159558Y-2181910D01*
X2153818Y-2183638D01*
X2150973Y-2185212D01*
X2146960Y-2186381D01*
X2142845Y-2185822D01*
X2139289Y-2183688D01*
X2136851Y-2180285D01*
X2135987Y-2176221D01*
X2135987Y-2129078D01*
X2136851Y-2124964D01*
X2139289Y-2121611D01*
X2142845Y-2119477D01*
X2146960Y-2118918D01*
X2150973Y-2120087D01*
X2153818Y-2121662D01*
X2159558Y-2123389D01*
X2166010Y-2123998D01*
X2271979Y-2123998D01*
X2278430Y-2123389D01*
X2284120Y-2121662D01*
X2289403Y-2118817D01*
X2294026Y-2115058D01*
X2297836Y-2110435D01*
X2299360Y-2107539D01*
X2301900Y-2104440D01*
X2305354Y-2102612D01*
X2311044Y-2100884D01*
X2318004Y-2097125D01*
X2324150Y-2092096D01*
X2329180Y-2085949D01*
X2332939Y-2078989D01*
X2335225Y-2071370D01*
X2336038Y-2062988D01*
X2336038Y-2059939D01*
X2336850Y-2056028D01*
X2339035Y-2052777D01*
X2342337Y-2050542D01*
X2346198Y-2049780D01*
X2367280Y-2049780D01*
X2367280Y-2007514D01*
X2368042Y-2003602D01*
X2370226Y-2000300D01*
X2373528Y-1998116D01*
X2377440Y-1997354D01*
X2448560Y-1997354D01*
X2452420Y-1998116D01*
X2455722Y-2000300D01*
X2457958Y-2003602D01*
X2458720Y-2007514D01*
X2458720Y-2049780D01*
X2516632Y-2049780D01*
X2520492Y-2050542D01*
X2523794Y-2052777D01*
X2526030Y-2056028D01*
X2526792Y-2059939D01*
X2526792Y-2131060D01*
X2526030Y-2134971D01*
X2523794Y-2138222D01*
X2520492Y-2140458D01*
X2516632Y-2141220D01*
X2458720Y-2141220D01*
X2458720Y-2204770D01*
X2491232Y-2204770D01*
X2497683Y-2204110D01*
X2503373Y-2202383D01*
X2508656Y-2199538D01*
X2510180Y-2198319D01*
X2513533Y-2196490D01*
X2517292Y-2196033D01*
X2520950Y-2196998D01*
X2524048Y-2199233D01*
X2526080Y-2202434D01*
X2526792Y-2206142D01*
X2526792Y-3043936D01*
X2525826Y-3065119D01*
X2523185Y-3084931D01*
X2518816Y-3104489D01*
X2512771Y-3123539D01*
X2505049Y-3142030D01*
X2495804Y-3159760D01*
X2485034Y-3176625D01*
X2472791Y-3192475D01*
X2459278Y-3207156D01*
X2444496Y-3220669D01*
X2428595Y-3232810D01*
X2411679Y-3243529D01*
X2393899Y-3252724D01*
X2375408Y-3260344D01*
X2356307Y-3266338D01*
X2336800Y-3270656D01*
X2316937Y-3273196D01*
X2296617Y-3274110D01*
G37*

%LPC*%
G36*
X1857552Y-3019755D02*
G01*
X1893316Y-3003804D01*
X1885238Y-2985668D01*
X1882038Y-2980029D01*
X1878126Y-2975508D01*
X1873402Y-2971850D01*
X1868068Y-2969158D01*
X1862328Y-2967583D01*
X1856384Y-2967126D01*
X1850440Y-2967888D01*
X1844293Y-2969920D01*
X1836826Y-2973222D01*
G37*
G36*
X2199487Y-2812389D02*
G01*
X2205482Y-2812034D01*
X2211222Y-2810510D01*
X2216607Y-2807919D01*
X2221382Y-2804312D01*
X2225649Y-2799486D01*
X2230475Y-2792882D01*
X2189276Y-2762961D01*
X2166264Y-2794609D01*
X2182368Y-2806344D01*
X2187956Y-2809595D01*
X2193594Y-2811576D01*
G37*
G36*
X2255570Y-2758338D02*
G01*
X2260346Y-2751734D01*
X2263597Y-2746146D01*
X2265578Y-2740507D01*
X2266391Y-2734614D01*
X2266035Y-2728620D01*
X2264511Y-2722880D01*
X2261920Y-2717495D01*
X2258314Y-2712720D01*
X2253488Y-2708452D01*
X2237384Y-2696718D01*
X2214372Y-2728417D01*
G37*
G36*
X2112721Y-2755696D02*
G01*
X2135733Y-2724048D01*
X2094534Y-2694127D01*
X2089759Y-2700731D01*
X2086457Y-2706319D01*
X2084527Y-2711958D01*
X2083714Y-2717850D01*
X2084070Y-2723794D01*
X2085543Y-2729585D01*
X2088184Y-2734970D01*
X2091740Y-2739745D01*
X2096617Y-2744012D01*
G37*
G36*
X2160828Y-2689504D02*
G01*
X2183841Y-2657805D01*
X2167737Y-2646121D01*
X2162149Y-2642870D01*
X2156510Y-2640888D01*
X2150567Y-2640076D01*
X2144623Y-2640431D01*
X2138832Y-2641955D01*
X2133498Y-2644546D01*
X2128723Y-2648153D01*
X2124405Y-2652979D01*
X2119630Y-2659583D01*
G37*
G36*
X2252065Y-2302306D02*
G01*
X2271979Y-2302306D01*
X2278430Y-2301646D01*
X2284120Y-2299919D01*
X2289403Y-2297125D01*
X2294026Y-2293315D01*
X2297785Y-2288743D01*
X2300630Y-2283460D01*
X2302357Y-2277719D01*
X2303018Y-2271318D01*
X2303018Y-2263140D01*
X2252065Y-2263140D01*
G37*
G36*
X2252065Y-2220468D02*
G01*
X2303018Y-2220468D01*
X2303018Y-2212289D01*
X2302713Y-2209698D01*
X2303272Y-2205380D01*
X2305507Y-2201621D01*
X2309164Y-2199233D01*
X2313432Y-2198522D01*
X2317648Y-2199741D01*
X2322576Y-2202383D01*
X2328316Y-2204110D01*
X2334768Y-2204770D01*
X2367280Y-2204770D01*
X2367280Y-2141220D01*
X2303729Y-2141220D01*
X2303729Y-2173732D01*
X2303983Y-2176373D01*
X2303475Y-2180691D01*
X2301240Y-2184400D01*
X2297582Y-2186838D01*
X2293315Y-2187498D01*
X2289098Y-2186330D01*
X2284120Y-2183638D01*
X2278430Y-2181910D01*
X2271979Y-2181301D01*
X2252065Y-2181301D01*
G37*

%LPD*%
G36*
X1309166Y-3274110D02*
G01*
X1305255Y-3273298D01*
X1302004Y-3271113D01*
X1299768Y-3267811D01*
X1299006Y-3263950D01*
X1299006Y-3169310D01*
X1298346Y-3162858D01*
X1296619Y-3157118D01*
X1293825Y-3151886D01*
X1290015Y-3147263D01*
X1285443Y-3143453D01*
X1280160Y-3140659D01*
X1274419Y-3138932D01*
X1268018Y-3138271D01*
X1208989Y-3138271D01*
X1202537Y-3138932D01*
X1196848Y-3140659D01*
X1191666Y-3143402D01*
X1185824Y-3148380D01*
X1182776Y-3150158D01*
X1179220Y-3150819D01*
X1150010Y-3150819D01*
X1146962Y-3150311D01*
X1144168Y-3148939D01*
X1135430Y-3142843D01*
X1126591Y-3138728D01*
X1117193Y-3136188D01*
X1107490Y-3135325D01*
X1097635Y-3136188D01*
X1093825Y-3135782D01*
X1090371Y-3133953D01*
X1087882Y-3131007D01*
X1085138Y-3121914D01*
X1084681Y-3118104D01*
X1085596Y-3114395D01*
X1087831Y-3111296D01*
X1091031Y-3109264D01*
X1094790Y-3108553D01*
X1437335Y-3108553D01*
X1445717Y-3107740D01*
X1453337Y-3105404D01*
X1460296Y-3101695D01*
X1466850Y-3096310D01*
X1561998Y-3001162D01*
X1565300Y-2998978D01*
X1569161Y-2998216D01*
X1717141Y-2998216D01*
X1721307Y-2999079D01*
X1724710Y-3001619D01*
X1726844Y-3005328D01*
X1727250Y-3009544D01*
X1725879Y-3013557D01*
X1722983Y-3016707D01*
X1718106Y-3020110D01*
X1711248Y-3026968D01*
X1705610Y-3034995D01*
X1703273Y-3040075D01*
X1701241Y-3042970D01*
X1698294Y-3045002D01*
X1694891Y-3045917D01*
X1691335Y-3045561D01*
X1688744Y-3044850D01*
X1682800Y-3044444D01*
X1676857Y-3045155D01*
X1670710Y-3047187D01*
X1616811Y-3071215D01*
X1611172Y-3074416D01*
X1606702Y-3078327D01*
X1602994Y-3083001D01*
X1600352Y-3088386D01*
X1598777Y-3094126D01*
X1598320Y-3100070D01*
X1599082Y-3106013D01*
X1601114Y-3112160D01*
X1625092Y-3165957D01*
X1625955Y-3169869D01*
X1625244Y-3173831D01*
X1623060Y-3177235D01*
X1619758Y-3179470D01*
X1615795Y-3180283D01*
X1594205Y-3180283D01*
X1590344Y-3179470D01*
X1587042Y-3177286D01*
X1575155Y-3165398D01*
X1573123Y-3162503D01*
X1572209Y-3159099D01*
X1571802Y-3154527D01*
X1569262Y-3145078D01*
X1565148Y-3136239D01*
X1559560Y-3128264D01*
X1552651Y-3121355D01*
X1544675Y-3115767D01*
X1535836Y-3111652D01*
X1526387Y-3109112D01*
X1516684Y-3108248D01*
X1506982Y-3109112D01*
X1497533Y-3111652D01*
X1488694Y-3115767D01*
X1480718Y-3121355D01*
X1473809Y-3128264D01*
X1469644Y-3134207D01*
X1467104Y-3136747D01*
X1463852Y-3138220D01*
X1460296Y-3138525D01*
X1458010Y-3138271D01*
X1449832Y-3138271D01*
X1449832Y-3189173D01*
X1460804Y-3189173D01*
X1464005Y-3189681D01*
X1466850Y-3191205D01*
X1469136Y-3193542D01*
X1473809Y-3200196D01*
X1480718Y-3207105D01*
X1488694Y-3212693D01*
X1497533Y-3216808D01*
X1506982Y-3219348D01*
X1511554Y-3219754D01*
X1514957Y-3220669D01*
X1517853Y-3222701D01*
X1544218Y-3249066D01*
X1555140Y-3257854D01*
X1556969Y-3261918D01*
X1556867Y-3266389D01*
X1554835Y-3270351D01*
X1551330Y-3273094D01*
X1547012Y-3274110D01*
X1499158Y-3274110D01*
X1495298Y-3273298D01*
X1491996Y-3271113D01*
X1489760Y-3267811D01*
X1488998Y-3263950D01*
X1488998Y-3255365D01*
X1449832Y-3255365D01*
X1449832Y-3263950D01*
X1449070Y-3267811D01*
X1446885Y-3271113D01*
X1443583Y-3273298D01*
X1439672Y-3274110D01*
X1417320Y-3274110D01*
X1413408Y-3273298D01*
X1410106Y-3271113D01*
X1407922Y-3267811D01*
X1407160Y-3263950D01*
X1407160Y-3255365D01*
X1367993Y-3255365D01*
X1367993Y-3263950D01*
X1367231Y-3267811D01*
X1364996Y-3271113D01*
X1361744Y-3273298D01*
X1357833Y-3274110D01*
G37*

%LPC*%
G36*
X1367993Y-3189173D02*
G01*
X1407160Y-3189173D01*
X1407160Y-3138271D01*
X1398981Y-3138271D01*
X1392580Y-3138932D01*
X1386840Y-3140659D01*
X1381556Y-3143453D01*
X1376984Y-3147263D01*
X1373174Y-3151886D01*
X1370380Y-3157118D01*
X1368653Y-3162858D01*
X1367993Y-3169310D01*
G37*

%LPD*%
G36*
X313994Y-3274110D02*
G01*
X255625Y-3274060D01*
X234848Y-3273145D01*
X215036Y-3270503D01*
X195529Y-3266135D01*
X176428Y-3260039D01*
X157988Y-3252368D01*
X140258Y-3243072D01*
X123393Y-3232302D01*
X107543Y-3220110D01*
X92811Y-3206546D01*
X79298Y-3191764D01*
X67157Y-3175863D01*
X56438Y-3158998D01*
X47244Y-3141218D01*
X39624Y-3122726D01*
X33629Y-3103626D01*
X29362Y-3084068D01*
X26771Y-3064256D01*
X25908Y-3043936D01*
X25908Y-2630373D01*
X26568Y-2626715D01*
X28498Y-2623566D01*
X31445Y-2621330D01*
X34950Y-2620264D01*
X38658Y-2620518D01*
X42468Y-2621534D01*
X48412Y-2621889D01*
X54305Y-2621076D01*
X59943Y-2619095D01*
X65532Y-2615844D01*
X151282Y-2553512D01*
X156159Y-2549245D01*
X159766Y-2544470D01*
X162356Y-2539085D01*
X163830Y-2533294D01*
X164185Y-2527350D01*
X163372Y-2521458D01*
X161442Y-2515819D01*
X159461Y-2512415D01*
X158140Y-2508453D01*
X158496Y-2504236D01*
X160578Y-2500579D01*
X172516Y-2492197D01*
X179374Y-2485288D01*
X185013Y-2477312D01*
X188112Y-2474417D01*
X192125Y-2473045D01*
X196392Y-2473452D01*
X200101Y-2475534D01*
X202590Y-2478938D01*
X203504Y-2483104D01*
X203504Y-2501544D01*
X204317Y-2509926D01*
X206603Y-2517546D01*
X210362Y-2524506D01*
X215696Y-2531059D01*
X349046Y-2664409D01*
X351129Y-2667406D01*
X351993Y-2671013D01*
X351536Y-2674670D01*
X350570Y-2677617D01*
X349910Y-2683560D01*
X350418Y-2689504D01*
X352094Y-2695244D01*
X355092Y-2700985D01*
X387197Y-2750464D01*
X391261Y-2755544D01*
X395833Y-2759405D01*
X401066Y-2762250D01*
X406755Y-2764078D01*
X412648Y-2764739D01*
X418592Y-2764231D01*
X424332Y-2762554D01*
X430072Y-2759608D01*
X519023Y-2701848D01*
X524052Y-2697835D01*
X527913Y-2693263D01*
X530809Y-2688031D01*
X532587Y-2682341D01*
X533247Y-2676398D01*
X532739Y-2670454D01*
X531114Y-2664714D01*
X528116Y-2658973D01*
X495960Y-2609494D01*
X491947Y-2604414D01*
X487375Y-2600604D01*
X482142Y-2597708D01*
X476453Y-2595880D01*
X470509Y-2595219D01*
X464566Y-2595727D01*
X458825Y-2597404D01*
X453085Y-2600350D01*
X427532Y-2616962D01*
X424383Y-2618333D01*
X420979Y-2618536D01*
X417626Y-2617622D01*
X414832Y-2615641D01*
X344424Y-2545181D01*
X342036Y-2541524D01*
X341477Y-2537206D01*
X342696Y-2533040D01*
X345592Y-2529789D01*
X373024Y-2509875D01*
X375869Y-2508402D01*
X379018Y-2507894D01*
X612749Y-2507894D01*
X621131Y-2507081D01*
X628751Y-2504795D01*
X635711Y-2501036D01*
X642264Y-2495702D01*
X781710Y-2356256D01*
X785317Y-2353919D01*
X789533Y-2353310D01*
X793699Y-2354478D01*
X796950Y-2357221D01*
X798779Y-2361133D01*
X798830Y-2365400D01*
X796442Y-2377440D01*
X795528Y-2391359D01*
X796442Y-2405278D01*
X799185Y-2418994D01*
X801776Y-2426614D01*
X802284Y-2430322D01*
X801420Y-2433929D01*
X799338Y-2437028D01*
X672185Y-2564180D01*
X666851Y-2570683D01*
X664667Y-2574747D01*
X663194Y-2576830D01*
X661263Y-2578455D01*
X623062Y-2603246D01*
X618032Y-2607310D01*
X614172Y-2611882D01*
X611276Y-2617063D01*
X609498Y-2622753D01*
X608838Y-2628696D01*
X609346Y-2634640D01*
X610971Y-2640380D01*
X613968Y-2646121D01*
X646125Y-2695600D01*
X650138Y-2700680D01*
X654710Y-2704541D01*
X659942Y-2707436D01*
X665632Y-2709214D01*
X671576Y-2709875D01*
X677519Y-2709367D01*
X683260Y-2707741D01*
X689000Y-2704744D01*
X777900Y-2646984D01*
X782929Y-2642971D01*
X786790Y-2638399D01*
X789686Y-2633167D01*
X791464Y-2627477D01*
X792124Y-2621534D01*
X791616Y-2615590D01*
X789990Y-2609850D01*
X786993Y-2604109D01*
X775665Y-2586634D01*
X774293Y-2583484D01*
X774090Y-2580030D01*
X775004Y-2576728D01*
X776986Y-2573934D01*
X856640Y-2494280D01*
X859739Y-2492197D01*
X863346Y-2491333D01*
X867054Y-2491841D01*
X874623Y-2494432D01*
X888288Y-2497124D01*
X902208Y-2498039D01*
X905814Y-2498953D01*
X908862Y-2501087D01*
X910894Y-2504186D01*
X911707Y-2507792D01*
X911199Y-2511450D01*
X907796Y-2521508D01*
X905052Y-2535174D01*
X904138Y-2549093D01*
X905052Y-2563012D01*
X907796Y-2576728D01*
X910336Y-2584297D01*
X910894Y-2588006D01*
X910031Y-2591663D01*
X907897Y-2594762D01*
X653440Y-2849219D01*
X649986Y-2851505D01*
X645871Y-2852216D01*
X641858Y-2851200D01*
X638556Y-2848660D01*
X636574Y-2845054D01*
X636168Y-2840939D01*
X636727Y-2835757D01*
X636219Y-2829814D01*
X634593Y-2824073D01*
X631596Y-2818333D01*
X627176Y-2811475D01*
X584454Y-2839212D01*
X611073Y-2880207D01*
X612444Y-2883357D01*
X612698Y-2886811D01*
X611733Y-2890113D01*
X609752Y-2892907D01*
X601116Y-2901594D01*
X595731Y-2908096D01*
X592023Y-2915107D01*
X589686Y-2922676D01*
X588873Y-2931058D01*
X588873Y-2945790D01*
X587908Y-2950159D01*
X585114Y-2953664D01*
X550113Y-2982010D01*
X545490Y-2986532D01*
X542188Y-2991510D01*
X539851Y-2996996D01*
X538632Y-3002838D01*
X538581Y-3008833D01*
X539750Y-3014675D01*
X541985Y-3020212D01*
X545541Y-3025597D01*
X582676Y-3071469D01*
X587197Y-3076092D01*
X592175Y-3079394D01*
X597662Y-3081731D01*
X603504Y-3082950D01*
X609498Y-3083001D01*
X615340Y-3081832D01*
X620877Y-3079597D01*
X626262Y-3076041D01*
X708660Y-3009341D01*
X713282Y-3004769D01*
X716584Y-2999841D01*
X718921Y-2994355D01*
X720140Y-2988513D01*
X720191Y-2982518D01*
X719023Y-2976676D01*
X716788Y-2971139D01*
X713232Y-2965704D01*
X691388Y-2938729D01*
X689610Y-2935478D01*
X689102Y-2931820D01*
X690016Y-2928213D01*
X692099Y-2925165D01*
X965200Y-2652014D01*
X968298Y-2649931D01*
X971956Y-2649067D01*
X975664Y-2649575D01*
X983234Y-2652166D01*
X996899Y-2654858D01*
X1010818Y-2655773D01*
X1024737Y-2654858D01*
X1038453Y-2652166D01*
X1051661Y-2647645D01*
X1059891Y-2643581D01*
X1063701Y-2642565D01*
X1067663Y-2643073D01*
X1071067Y-2645105D01*
X1073505Y-2648204D01*
X1074521Y-2652217D01*
X1077264Y-2665882D01*
X1081735Y-2679090D01*
X1087932Y-2691638D01*
X1095654Y-2703220D01*
X1104849Y-2713736D01*
X1115364Y-2722930D01*
X1117752Y-2724505D01*
X1120851Y-2727756D01*
X1122222Y-2731973D01*
X1121714Y-2736392D01*
X1119327Y-2740152D01*
X1037742Y-2821736D01*
X1034542Y-2823870D01*
X1030732Y-2824683D01*
X1026921Y-2824022D01*
X1012037Y-2818282D01*
X1005789Y-2816555D01*
X999845Y-2816148D01*
X993902Y-2816910D01*
X988263Y-2818790D01*
X983030Y-2821736D01*
X978560Y-2825648D01*
X974852Y-2830322D01*
X971956Y-2836113D01*
X934008Y-2935071D01*
X932281Y-2941320D01*
X931824Y-2947263D01*
X932586Y-2953207D01*
X934466Y-2958896D01*
X937412Y-2964078D01*
X941324Y-2968599D01*
X946048Y-2972257D01*
X951839Y-2975152D01*
X1006906Y-2996285D01*
X1013155Y-2998012D01*
X1019098Y-2998419D01*
X1025042Y-2997708D01*
X1030681Y-2995828D01*
X1035862Y-2992882D01*
X1040384Y-2988970D01*
X1044041Y-2984246D01*
X1046937Y-2978454D01*
X1078179Y-2897073D01*
X1080465Y-2893568D01*
X1208633Y-2765399D01*
X1213967Y-2758897D01*
X1217726Y-2751886D01*
X1220012Y-2744317D01*
X1221079Y-2739339D01*
X1223010Y-2736545D01*
X1225804Y-2734513D01*
X1233627Y-2730652D01*
X1245260Y-2722930D01*
X1255725Y-2713736D01*
X1264970Y-2703220D01*
X1267561Y-2699308D01*
X1270355Y-2696514D01*
X1274013Y-2694990D01*
X1277975Y-2694990D01*
X1281633Y-2696514D01*
X1284478Y-2699308D01*
X1287170Y-2703372D01*
X1296365Y-2713888D01*
X1306880Y-2723083D01*
X1318463Y-2730855D01*
X1325676Y-2734360D01*
X1328674Y-2736646D01*
X1330655Y-2739796D01*
X1331315Y-2743504D01*
X1331315Y-2881122D01*
X1330553Y-2884982D01*
X1328369Y-2888284D01*
X1325067Y-2890520D01*
X1321155Y-2891282D01*
X1303985Y-2891282D01*
X1297533Y-2891891D01*
X1291844Y-2893669D01*
X1286560Y-2896463D01*
X1281988Y-2900273D01*
X1278178Y-2904845D01*
X1275384Y-2910128D01*
X1273606Y-2915818D01*
X1272997Y-2922270D01*
X1272997Y-3017367D01*
X1272235Y-3021279D01*
X1270000Y-3024581D01*
X1266698Y-3026765D01*
X1262837Y-3027527D01*
X869746Y-3027527D01*
X866140Y-3026867D01*
X834796Y-3014827D01*
X828598Y-3013100D01*
X822604Y-3012694D01*
X816711Y-3013456D01*
X811022Y-3015335D01*
X805840Y-3018282D01*
X801319Y-3022193D01*
X797661Y-3026867D01*
X794766Y-3032658D01*
X756767Y-3131616D01*
X755040Y-3137865D01*
X754634Y-3143808D01*
X755345Y-3149752D01*
X757275Y-3155442D01*
X760222Y-3160623D01*
X764133Y-3165144D01*
X768807Y-3168802D01*
X774598Y-3171698D01*
X829665Y-3192830D01*
X835914Y-3194558D01*
X841908Y-3194964D01*
X847801Y-3194253D01*
X853490Y-3192373D01*
X858672Y-3189427D01*
X863193Y-3185515D01*
X866851Y-3180791D01*
X869746Y-3175000D01*
X892759Y-3115056D01*
X894943Y-3111652D01*
X898245Y-3109366D01*
X902258Y-3108553D01*
X954379Y-3108553D01*
X958392Y-3109366D01*
X961694Y-3111703D01*
X963879Y-3115157D01*
X964539Y-3119170D01*
X1001572Y-3133394D01*
X1008583Y-3115056D01*
X1010767Y-3111652D01*
X1014120Y-3109366D01*
X1018082Y-3108553D01*
X1042060Y-3108553D01*
X1045870Y-3109315D01*
X1049172Y-3111449D01*
X1051356Y-3114649D01*
X1052220Y-3118510D01*
X1051560Y-3122371D01*
X1041450Y-3148685D01*
X1051966Y-3152698D01*
X1055420Y-3154934D01*
X1057706Y-3158388D01*
X1058468Y-3162452D01*
X1057503Y-3166516D01*
X1054862Y-3172155D01*
X1052372Y-3181604D01*
X1051509Y-3191306D01*
X1052372Y-3201009D01*
X1053998Y-3207105D01*
X1054150Y-3211576D01*
X1052474Y-3215640D01*
X1049172Y-3218586D01*
X1044905Y-3219907D01*
X1040536Y-3219246D01*
X1017727Y-3210509D01*
X995375Y-3268929D01*
X993089Y-3271672D01*
X990041Y-3273450D01*
X986536Y-3274110D01*
X499262Y-3274110D01*
X494893Y-3273094D01*
X491388Y-3270300D01*
X484936Y-3262376D01*
X473252Y-3271824D01*
X470255Y-3273501D01*
X466851Y-3274110D01*
X441299Y-3274110D01*
X437692Y-3273399D01*
X434543Y-3271469D01*
X432257Y-3268522D01*
X431241Y-3264966D01*
X431495Y-3261309D01*
X432765Y-3256584D01*
X433019Y-3253435D01*
X434187Y-3249523D01*
X436778Y-3246424D01*
X458063Y-3229203D01*
X433324Y-3198622D01*
X429310Y-3199942D01*
X425145Y-3199485D01*
X421487Y-3197352D01*
X419049Y-3193948D01*
X418134Y-3189833D01*
X418134Y-3127197D01*
X419150Y-3122828D01*
X421893Y-3119272D01*
X456895Y-3090976D01*
X461518Y-3086404D01*
X464870Y-3081477D01*
X467207Y-3075940D01*
X468376Y-3070098D01*
X468426Y-3064154D01*
X467309Y-3058261D01*
X465074Y-3052775D01*
X461518Y-3047339D01*
X424383Y-3001518D01*
X419811Y-2996895D01*
X414883Y-2993542D01*
X409397Y-2991205D01*
X403504Y-2990037D01*
X397560Y-2989986D01*
X391668Y-2991104D01*
X386181Y-2993339D01*
X380746Y-2996895D01*
X298399Y-3063595D01*
X293776Y-3068167D01*
X290423Y-3073095D01*
X288086Y-3078632D01*
X286918Y-3084474D01*
X286867Y-3090418D01*
X287985Y-3096310D01*
X290220Y-3101797D01*
X293776Y-3107232D01*
X330911Y-3153054D01*
X334213Y-3156407D01*
X336397Y-3159709D01*
X337159Y-3163570D01*
X337159Y-3204311D01*
X336651Y-3207410D01*
X335280Y-3210153D01*
X329184Y-3218891D01*
X325069Y-3227730D01*
X322529Y-3237179D01*
X321665Y-3246882D01*
X322529Y-3256584D01*
X323799Y-3261309D01*
X324053Y-3264966D01*
X323037Y-3268522D01*
X320751Y-3271469D01*
X317601Y-3273399D01*
G37*

%LPC*%
G36*
X561035Y-3251149D02*
G01*
X576478Y-3238601D01*
X581101Y-3234080D01*
X584454Y-3229102D01*
X586740Y-3223615D01*
X587959Y-3217773D01*
X588010Y-3211779D01*
X586892Y-3205937D01*
X584606Y-3200400D01*
X581050Y-3195015D01*
X575919Y-3188665D01*
X536397Y-3220720D01*
G37*
G36*
X959612Y-3242716D02*
G01*
X977849Y-3195167D01*
X941273Y-3181146D01*
X934161Y-3199739D01*
X932434Y-3205988D01*
X932027Y-3211931D01*
X932738Y-3217824D01*
X934618Y-3223514D01*
X937564Y-3228695D01*
X941476Y-3233216D01*
X946200Y-3236874D01*
X951992Y-3239770D01*
G37*
G36*
X509524Y-3187496D02*
G01*
X549046Y-3155492D01*
X543915Y-3149142D01*
X539394Y-3144520D01*
X534466Y-3141218D01*
X528929Y-3138881D01*
X523087Y-3137662D01*
X517143Y-3137611D01*
X511251Y-3138779D01*
X505714Y-3141014D01*
X500329Y-3144570D01*
X484885Y-3157067D01*
G37*
G36*
X516128Y-2924098D02*
G01*
X522071Y-2923590D01*
X527812Y-2921914D01*
X533603Y-2918917D01*
X550265Y-2908096D01*
X528929Y-2875280D01*
X486257Y-2902966D01*
X490677Y-2909824D01*
X494741Y-2914904D01*
X499313Y-2918714D01*
X504545Y-2921609D01*
X510235Y-2923438D01*
G37*
G36*
X462991Y-2867152D02*
G01*
X505663Y-2839466D01*
X484378Y-2806598D01*
X467664Y-2817469D01*
X462635Y-2821482D01*
X458774Y-2826054D01*
X455879Y-2831287D01*
X454101Y-2836976D01*
X453390Y-2842920D01*
X453898Y-2848864D01*
X455574Y-2854604D01*
X458571Y-2860344D01*
G37*
G36*
X561187Y-2803398D02*
G01*
X603910Y-2775661D01*
X599440Y-2768854D01*
X595426Y-2763774D01*
X590854Y-2759913D01*
X585622Y-2757068D01*
X579932Y-2755239D01*
X573989Y-2754579D01*
X568045Y-2755087D01*
X562305Y-2756763D01*
X556564Y-2759710D01*
X539902Y-2770581D01*
G37*
G36*
X160070Y-2775610D02*
G01*
X166014Y-2774797D01*
X171653Y-2772816D01*
X177241Y-2769565D01*
X193344Y-2757830D01*
X170281Y-2726182D01*
X129133Y-2756103D01*
X133908Y-2762707D01*
X138226Y-2767533D01*
X142951Y-2771140D01*
X148336Y-2773730D01*
X154127Y-2775254D01*
G37*
G36*
X104038Y-2721559D02*
G01*
X145186Y-2691638D01*
X122174Y-2659938D01*
X106070Y-2671622D01*
X101244Y-2675940D01*
X97637Y-2680716D01*
X95046Y-2686100D01*
X93522Y-2691841D01*
X93167Y-2697835D01*
X94030Y-2703728D01*
X95961Y-2709367D01*
X99212Y-2714955D01*
G37*
G36*
X246888Y-2718917D02*
G01*
X262991Y-2707233D01*
X267817Y-2702915D01*
X271424Y-2698191D01*
X274015Y-2692806D01*
X275539Y-2687015D01*
X275894Y-2681071D01*
X275082Y-2675178D01*
X273100Y-2669489D01*
X269849Y-2663952D01*
X265023Y-2657348D01*
X223875Y-2687269D01*
G37*
G36*
X198780Y-2652725D02*
G01*
X239928Y-2622804D01*
X235153Y-2616200D01*
X230835Y-2611374D01*
X226110Y-2607767D01*
X220725Y-2605125D01*
X214934Y-2603652D01*
X208991Y-2603296D01*
X203098Y-2604109D01*
X197459Y-2606090D01*
X191871Y-2609342D01*
X175768Y-2621026D01*
G37*

%LPD*%
D10*
X1353820Y-1164336D02*
G01*
X1420368Y-1164336D01*
X1524000Y-1267968D01*
X1524000Y-1614678D01*
X1564131Y-1654810D01*
X1353896Y-1359306D02*
G01*
X1353896Y-1595602D01*
X1371320Y-1613027D01*
X1712569Y-1460500D02*
G01*
X1712569Y-1622196D01*
X1621866Y-1712899D01*
X1471193Y-1712899D01*
X1371320Y-1613027D01*
X377647Y-3077286D02*
G01*
X377647Y-3246881D01*
X1955800Y-960678D02*
G01*
X1955800Y-1379575D01*
X2413000Y-1587500D02*
G01*
X2302636Y-1477137D01*
X2302636Y-1232407D01*
X1223975Y-1294307D02*
G01*
X1223975Y-1361389D01*
X1223975Y-960907D02*
G01*
X1223975Y-1294307D01*
X1353896Y-1294307D02*
G01*
X1223975Y-1294307D01*
X2295550Y-2063495D02*
G01*
X2295550Y-2010460D01*
X2349169Y-1956841D01*
X2449652Y-1956841D01*
X2526868Y-1879625D01*
X2526868Y-1800682D01*
X2440686Y-1714500D01*
X2392121Y-1714500D01*
X2253615Y-1575993D01*
X2253615Y-1229334D01*
X2206294Y-1182014D01*
X2110740Y-1182014D01*
X2104923Y-1176197D01*
X2104923Y-925525D01*
X1953691Y-774293D01*
X1353896Y-774293D01*
X2218994Y-2063495D02*
G01*
X2295550Y-2063495D01*
X1353896Y-904290D02*
G01*
X1270863Y-904290D01*
X1243203Y-876630D01*
X1243203Y-243814D01*
X1149400Y-150012D01*
X779703Y-774293D02*
G01*
X844169Y-774293D01*
X887247Y-731215D01*
X2171700Y-1037107D02*
G01*
X2171700Y-1118463D01*
X2387600Y-1062278D02*
G01*
X2279522Y-1062278D01*
X2171700Y-1118463D02*
G01*
X2237943Y-1118463D01*
X2279522Y-1062278D02*
G01*
X2279522Y-1076883D01*
X2237943Y-1118463D01*
X1747723Y-1682597D02*
G01*
X1684197Y-1746122D01*
X1199286Y-1746122D01*
X812469Y-1359306D01*
X779703Y-1359306D01*
X1754098Y-3062960D02*
G01*
X1750948Y-3062960D01*
X1677949Y-3135960D01*
X136525Y-2449321D02*
G01*
X72847Y-2512999D01*
X72847Y-2535732D01*
X1353896Y-1229309D02*
G01*
X1424076Y-1229309D01*
X1478813Y-1284046D01*
X1478813Y-1472387D01*
X1460068Y-1491132D01*
X2142464Y-2431795D02*
G01*
X2095500Y-2384831D01*
X2095500Y-1858365D01*
X1789963Y-1552829D01*
X1789963Y-1204595D01*
X1424660Y-839292D01*
X1353896Y-839292D01*
X2218994Y-2431795D02*
G01*
X2142464Y-2431795D01*
X333705Y-1924304D02*
G01*
X338404Y-1919604D01*
X338404Y-1796465D01*
X333705Y-1791766D01*
X333705Y-1219809D01*
X498043Y-1055471D01*
X1353896Y-969289D02*
G01*
X1356766Y-972159D01*
X1480057Y-972159D01*
X2085720Y-1663420D02*
G01*
X2023618Y-1663420D01*
X1878329Y-1518132D01*
X1878329Y-1269339D01*
X779703Y-969289D02*
G01*
X700074Y-969289D01*
X535533Y-1133830D01*
X535533Y-1157731D01*
X1851507Y-3058693D02*
G01*
X1807082Y-3014268D01*
X1581048Y-3014268D01*
X1428495Y-3166821D01*
X1428495Y-3222294D01*
X545058Y-3177082D02*
G01*
X570458Y-3202482D01*
X979093Y-3202482D01*
X1009624Y-3171952D01*
X185928Y-2114295D02*
G01*
X145795Y-2114295D01*
X127000Y-2095500D01*
X241020Y-2114295D02*
G01*
X185928Y-2114295D01*
X184530Y-2689453D02*
G01*
X185928Y-2688056D01*
X185928Y-2114295D01*
X333705Y-2114295D02*
G01*
X241020Y-2114295D01*
X830021Y-610311D02*
G01*
X830021Y-651713D01*
X771575Y-710158D01*
X708152Y-710158D01*
X241020Y-1177289D01*
X241020Y-2114295D01*
X2156231Y-1504061D02*
G01*
X1982241Y-1504061D01*
X2171700Y-1300810D02*
G01*
X2171700Y-1488592D01*
X2156231Y-1504061D01*
X2156231Y-1504061D02*
G01*
X2156231Y-1603933D01*
X2171700Y-1619402D01*
X2171700Y-1791233D01*
X2142464Y-1820468D01*
X2142464Y-1873504D01*
X2175052Y-2726232D02*
G01*
X2094052Y-2726232D01*
X1851507Y-2968777D01*
X1851507Y-3058693D01*
X933195Y-610311D02*
G01*
X1001471Y-610311D01*
X1014577Y-597204D01*
X923340Y-610311D02*
G01*
X933195Y-610311D01*
X923340Y-610311D02*
G01*
X870153Y-610311D01*
X1331259Y-3135756D02*
G01*
X1045819Y-3135756D01*
X1009624Y-3171952D01*
X1428495Y-3222294D02*
G01*
X1341958Y-3135756D01*
X1331259Y-3135756D01*
X454532Y-1467172D02*
G01*
X454532Y-1421663D01*
X711885Y-1164310D01*
X779703Y-1164310D01*
X454532Y-1704212D02*
G01*
X454532Y-1467172D01*
X333908Y-379247D02*
G01*
X639089Y-379247D01*
X830021Y-570179D01*
X830021Y-610311D01*
X830021Y-610311D02*
G01*
X870153Y-610311D01*
X545058Y-2839338D02*
G01*
X334416Y-2839338D01*
X184530Y-2689453D01*
X545058Y-2839338D02*
G01*
X545058Y-3177082D01*
X545058Y-3177082D02*
G01*
X497204Y-3224936D01*
X779703Y-1164310D02*
G01*
X862456Y-1164310D01*
X938809Y-1087958D01*
X938809Y-688949D01*
X933195Y-683336D01*
X2413000Y-2095500D02*
G01*
X2413000Y-2197277D01*
X2301392Y-2247645D02*
G01*
X2295550Y-2241804D01*
X2413000Y-2197277D02*
G01*
X2351760Y-2197277D01*
X2301392Y-2247645D01*
X2175052Y-2726232D02*
G01*
X2301392Y-2599893D01*
X2301392Y-2247645D01*
X2218994Y-2241804D02*
G01*
X2295550Y-2241804D01*
X2202484Y-178460D02*
G01*
X2273300Y-178460D01*
X2202484Y-178460D02*
G01*
X2115261Y-178460D01*
X333908Y-379247D02*
G01*
X298602Y-414553D01*
X333908Y-215900D02*
G01*
X333908Y-379247D01*
X298602Y-482600D02*
G01*
X298602Y-414553D01*
X2150668Y-2241804D02*
G01*
X2142286Y-2233421D01*
X2142286Y-1873681D01*
X2142464Y-1873504D01*
X2218994Y-2241804D02*
G01*
X2150668Y-2241804D01*
X2218994Y-1873504D02*
G01*
X2142464Y-1873504D01*
X2171700Y-1269136D02*
G01*
X2171700Y-1300810D01*
X933195Y-610311D02*
G01*
X933195Y-683336D01*
X127000Y-902563D02*
G01*
X127000Y-839215D01*
X127000Y-839215D02*
G01*
X298602Y-667613D01*
X298602Y-482600D01*
X1657400Y-150012D02*
G01*
X1765198Y-42214D01*
X1979015Y-42214D01*
X2115261Y-178460D01*
D11*
X158597Y-482600D02*
G01*
X90551Y-482600D01*
X90551Y-482600D02*
G01*
X55575Y-517575D01*
X55575Y-1155293D01*
X127000Y-1226718D01*
X224891Y-188366D02*
G01*
X158597Y-254660D01*
X158597Y-482600D01*
X127000Y-1333500D02*
G01*
X127000Y-1226718D01*
X1185341Y-573608D02*
G01*
X1185341Y-923620D01*
X1170279Y-938682D01*
X1170279Y-986866D01*
X862837Y-1294307D01*
X779703Y-1294307D01*
X224891Y-188366D02*
G01*
X224891Y-160858D01*
X224891Y-215900D02*
G01*
X224891Y-188366D01*
X1146327Y-573608D02*
G01*
X1058189Y-485470D01*
X799490Y-485470D01*
X641400Y-327380D01*
X641400Y-150012D01*
X1107312Y-573608D02*
G01*
X1146327Y-573608D01*
X1146327Y-573608D02*
G01*
X1185341Y-573608D01*
X1107312Y-391591D02*
G01*
X1185341Y-391591D01*
X1185341Y-391591D02*
G01*
X1185341Y-573608D01*
X641400Y-150012D02*
G01*
X235737Y-150012D01*
X224891Y-160858D01*
D10*
X580694Y-2019300D02*
G01*
X657250Y-2019300D01*
X947572Y-2022297D02*
G01*
X660247Y-2022297D01*
X657250Y-2019300D01*
X1353896Y-1099312D02*
G01*
X1425727Y-1099312D01*
X1572158Y-1245743D01*
X1572158Y-1580261D01*
X1628876Y-1636979D01*
X2030475Y-1897430D02*
G01*
X2053691Y-1920646D01*
X2053691Y-2639720D01*
X1735709Y-2957703D01*
X1548180Y-2957703D01*
X1437843Y-3068040D01*
X868070Y-3068040D01*
X832256Y-3103854D01*
X555218Y-1543100D02*
G01*
X555218Y-1387017D01*
X712927Y-1229309D01*
X779703Y-1229309D01*
X441579Y-2680004D02*
G01*
X421944Y-2680004D01*
X243992Y-2502052D01*
X243992Y-2421737D01*
X421030Y-2244699D01*
X421030Y-1791843D01*
X369011Y-1739823D01*
X369011Y-1253362D01*
X591438Y-1030935D01*
X591438Y-1026921D01*
X714070Y-904290D01*
X779703Y-904290D01*
X328523Y-2467406D02*
G01*
X613257Y-2467406D01*
X879398Y-2201265D01*
X2273300Y-481939D02*
G01*
X2115261Y-481939D01*
X1955800Y-623214D02*
G01*
X1973986Y-623214D01*
X2115261Y-481939D01*
X1955800Y-623214D02*
G01*
X1955800Y-581507D01*
X1955800Y-664921D02*
G01*
X1955800Y-623214D01*
X1955800Y-581507D02*
G01*
X1934540Y-560247D01*
X1934540Y-406400D01*
X2273300Y-481939D02*
G01*
X2431338Y-481939D01*
X2387600Y-766521D02*
G01*
X2387600Y-683107D01*
X2387600Y-683107D02*
G01*
X2431338Y-639368D01*
X2431338Y-481939D01*
X1934540Y-406400D02*
G01*
X1934540Y-325856D01*
X1911400Y-150012D02*
G01*
X1911400Y-302717D01*
X1934540Y-325856D01*
X1596059Y-406400D02*
G01*
X1525523Y-406400D01*
X1407312Y-391591D02*
G01*
X1510715Y-391591D01*
X1525523Y-406400D01*
X1541475Y-2549601D02*
G01*
X1664258Y-2672384D01*
X1664258Y-2871673D01*
X1371828Y-2638450D02*
G01*
X1371828Y-2936976D01*
X1333500Y-2975305D01*
X1009446Y-2907309D02*
G01*
X1180337Y-2736418D01*
X1180337Y-2638297D01*
X1605686Y-2022881D02*
G01*
X1660067Y-1968500D01*
X1972005Y-1968500D01*
X1972005Y-2336800D02*
G01*
X1895475Y-2336800D01*
X1673529Y-2201951D02*
G01*
X1760626Y-2201951D01*
X1895475Y-2336800D01*
X1650364Y-2392045D02*
G01*
X1653514Y-2392045D01*
X1919376Y-2657906D01*
X1454226Y-1894408D02*
G01*
X1650669Y-1894408D01*
X1826818Y-1718259D01*
X902258Y-2391384D02*
G01*
X700481Y-2593162D01*
X700481Y-2625140D01*
X1010843Y-2549118D02*
G01*
X629386Y-2930575D01*
X629386Y-2995676D01*
X838200Y-380288D02*
G01*
X901242Y-380288D01*
X1407312Y-573608D02*
G01*
X1334262Y-573608D01*
X1334262Y-573608D02*
G01*
X1276426Y-515772D01*
X1276426Y-127914D01*
X1195070Y-46558D01*
X1106627Y-46558D01*
X1022426Y-130759D01*
X1022426Y-259105D01*
X901242Y-380288D01*
X300609Y-989863D02*
G01*
X127000Y-989863D01*
X680161Y-610311D02*
G01*
X300609Y-989863D01*
X303123Y-1023670D02*
G01*
X300609Y-1021156D01*
X300609Y-989863D01*
X779703Y-1034313D02*
G01*
X713104Y-1034313D01*
X622300Y-1125118D01*
X743204Y-610311D02*
G01*
X680161Y-610311D01*
X127000Y-1053236D02*
G01*
X127000Y-989863D01*
X1107465Y-3191306D02*
G01*
X1207515Y-3191306D01*
X1238504Y-3222294D01*
X954379Y-1570075D02*
G01*
X768527Y-1570075D01*
X503986Y-1834616D01*
X503986Y-2260828D01*
X529589Y-2286431D01*
X1353896Y-1034313D02*
G01*
X1425498Y-1034313D01*
X1620850Y-1229664D01*
X1620850Y-1366596D01*
X779703Y-839292D02*
G01*
X630046Y-839292D01*
X289712Y-1179626D01*
X289712Y-1854098D01*
X1516684Y-3164230D02*
G01*
X1573225Y-3220770D01*
X1832635Y-3220770D01*
X2063368Y-2990037D01*
X2063368Y-2879953D01*
D12*
X714247Y-1754631D02*
G01*
X825500Y-1866900D01*
X1062481Y-1866900D01*
X1091184Y-1895602D01*
D13*
G01*
X2273300Y-481949D03*
D14*
G01*
X2273300Y-178460D03*
D15*
G01*
X158597Y-482600D03*
G01*
X298602Y-482600D03*
D16*
G01*
X224894Y-215900D03*
G01*
X333905Y-215900D03*
D17*
G01*
X1596059Y-406400D03*
G01*
X1934540Y-406400D03*
D18*
G01*
X933195Y-610311D03*
G01*
X838200Y-380288D03*
G01*
X743204Y-610311D03*
D19*
G01*
X555203Y-1543094D03*
D20*
G01*
X454524Y-1704219D03*
D21*
G01*
X714334Y-1754543D03*
D22*
G01*
X1677946Y-3135960D03*
D23*
G01*
X1851512Y-3058684D03*
D24*
G01*
X1664266Y-2871678D03*
D25*
G01*
X72849Y-2535737D03*
D26*
G01*
X184523Y-2689444D03*
D27*
G01*
X328513Y-2467408D03*
D28*
G01*
X1238504Y-3222294D03*
G01*
X1428495Y-3222294D03*
G01*
X1333500Y-2975305D03*
D29*
G01*
X832252Y-3103854D03*
D30*
G01*
X1009627Y-3171938D03*
D31*
G01*
X1009458Y-2907303D03*
D32*
G01*
X377639Y-3077295D03*
D33*
G01*
X497205Y-3224946D03*
D34*
G01*
X629378Y-2995679D03*
D35*
G01*
X2218994Y-2063495D03*
G01*
X2218994Y-1873504D03*
G01*
X1972005Y-1968500D03*
G01*
X2218994Y-2431795D03*
G01*
X2218994Y-2241804D03*
G01*
X1972005Y-2336800D03*
G01*
X333705Y-1924304D03*
G01*
X333705Y-2114295D03*
G01*
X580694Y-2019300D03*
D36*
G01*
X2063376Y-2879943D03*
D37*
G01*
X2175048Y-2726239D03*
D38*
G01*
X1919386Y-2657905D03*
D39*
G01*
X441581Y-2679989D03*
D40*
G01*
X545063Y-2839335D03*
D41*
G01*
X700473Y-2625138D03*
D42*
G01*
X2085713Y-1663406D03*
D43*
G01*
X1982237Y-1504064D03*
D44*
G01*
X1826823Y-1718263D03*
D45*
G01*
X2171700Y-1118475D03*
D46*
G01*
X2171700Y-1269136D03*
D45*
G01*
X127000Y-1053224D03*
D46*
G01*
X127000Y-902563D03*
D47*
G01*
X1107312Y-573608D03*
G01*
X1107312Y-391591D03*
G01*
X1407312Y-391591D03*
G01*
X1407312Y-573608D03*
D48*
G01*
X1955800Y-960676D03*
D49*
G01*
X1955800Y-664921D03*
D48*
G01*
X2387600Y-766523D03*
D49*
G01*
X2387600Y-1062278D03*
D50*
G01*
X779703Y-774293D03*
G01*
X779703Y-839292D03*
G01*
X779703Y-904290D03*
G01*
X779703Y-969289D03*
G01*
X779703Y-1034313D03*
G01*
X779703Y-1099312D03*
G01*
X779703Y-1164310D03*
G01*
X779703Y-1229309D03*
G01*
X779703Y-1294307D03*
G01*
X779703Y-1359306D03*
G01*
X1353896Y-774293D03*
G01*
X1353896Y-839292D03*
G01*
X1353896Y-904290D03*
G01*
X1353896Y-969289D03*
G01*
X1353896Y-1034313D03*
G01*
X1353896Y-1099312D03*
G01*
X1353896Y-1164310D03*
G01*
X1353896Y-1229309D03*
G01*
X1353896Y-1294307D03*
G01*
X1353896Y-1359306D03*
D51*
G01*
X127000Y-1333500D03*
D52*
G01*
X127000Y-1587500D03*
G01*
X127000Y-1841500D03*
G01*
X127000Y-2095500D03*
D51*
G01*
X2413000Y-2095500D03*
D52*
G01*
X2413000Y-1841500D03*
G01*
X2413000Y-1587500D03*
G01*
X2413000Y-1333500D03*
D53*
G01*
X1541475Y-2549601D03*
G01*
X1650364Y-2392045D03*
G01*
X1673529Y-2201951D03*
G01*
X879398Y-2201265D03*
G01*
X1180337Y-2638297D03*
G01*
X902258Y-2391384D03*
G01*
X1010843Y-2549118D03*
G01*
X947572Y-2022297D03*
G01*
X1605686Y-2022881D03*
G01*
X1371828Y-2638450D03*
G01*
X1276426Y-1850009D03*
G01*
X1454226Y-1894408D03*
G01*
X1091107Y-1895525D03*
D52*
G01*
X1911400Y-150012D03*
G01*
X1657400Y-150012D03*
G01*
X1403400Y-150012D03*
G01*
X1149400Y-150012D03*
G01*
X895400Y-150012D03*
D51*
G01*
X641400Y-150012D03*
D54*
G01*
X1371320Y-1613027D03*
G01*
X1712569Y-1460500D03*
G01*
X377647Y-3246881D03*
G01*
X1564131Y-1654784D03*
G01*
X1955800Y-1379575D03*
G01*
X2302636Y-1232407D03*
G01*
X1223975Y-1361389D03*
G01*
X1223975Y-960907D03*
G01*
X2171700Y-1037107D03*
G01*
X887247Y-731215D03*
G01*
X1754098Y-3062960D03*
G01*
X1747723Y-1682597D03*
G01*
X136525Y-2449321D03*
G01*
X1460068Y-1491132D03*
G01*
X498043Y-1055471D03*
G01*
X1480057Y-972159D03*
G01*
X1878329Y-1269339D03*
G01*
X535533Y-1157731D03*
G01*
X1014577Y-597204D03*
G01*
X2030475Y-1897430D03*
G01*
X1628876Y-1636979D03*
G01*
X303123Y-1023670D03*
G01*
X622300Y-1125118D03*
G01*
X1107465Y-3191306D03*
G01*
X529589Y-2286431D03*
G01*
X954379Y-1570075D03*
G01*
X1620850Y-1366596D03*
G01*
X1516684Y-3164230D03*
G01*
X289712Y-1854098D03*
G01*
X165100Y-622300D03*
G01*
X165100Y-774700D03*
G01*
X342900Y-774700D03*
G01*
X520700Y-622300D03*
G01*
X647700Y-482600D03*
G01*
X444500Y-241300D03*
G01*
X393700Y-469900D03*
G01*
X1549400Y-571500D03*
G01*
X1701800Y-635000D03*
G01*
X2184400Y-660400D03*
G01*
X2197100Y-774700D03*
G01*
X2082800Y-177800D03*
G01*
X2273300Y-304800D03*
G01*
X2463800Y-177800D03*
G01*
X2463800Y-2311400D03*
G01*
X2463800Y-2616200D03*
G01*
X2463800Y-2921000D03*
G01*
X2463800Y-3124200D03*
G01*
X2260600Y-3213100D03*
G01*
X1955800Y-3225800D03*
G01*
X2171700Y-2971800D03*
G01*
X2273300Y-2794000D03*
G01*
X2235200Y-2565400D03*
G01*
X2222500Y-2324100D03*
G01*
X1130300Y-2959100D03*
G01*
X1270000Y-2781300D03*
G01*
X919454Y-2793237D03*
G01*
X228600Y-3213100D03*
G01*
X101600Y-3111500D03*
G01*
X76200Y-2806700D03*
G01*
X381000Y-2819400D03*
G01*
X241300Y-2921000D03*
G01*
X647700Y-3136900D03*
G01*
X762000Y-2959100D03*
G01*
X127000Y-2286000D03*
G01*
X444500Y-2349500D03*
G01*
X660400Y-2171700D03*
G01*
X762000Y-1473200D03*
G01*
X454532Y-1467180D03*
G01*
X1117600Y-1485900D03*
G01*
X1117600Y-1193800D03*
G01*
X2032000Y-1130300D03*
G01*
X1765300Y-965200D03*
G01*
X1600200Y-838200D03*
G01*
X1676400Y-1181100D03*
G01*
X1651000Y-1549400D03*
G01*
X76200Y-342900D03*
G01*
X101600Y-139700D03*
G01*
X419100Y-76200D03*
G01*
X1371600Y-292100D03*
G01*
X1778000Y-292100D03*
G01*
X2133600Y-1397000D03*
G01*
X2209800Y-1676400D03*
G01*
X2222500Y-1955800D03*
G01*
X1549400Y-2794000D03*
G01*
X1701800Y-2578100D03*
G01*
X749300Y-1917700D03*
G01*
X647700Y-1879600D03*
G01*
X927100Y-1790700D03*
G01*
X2044700Y-1562100D03*
G01*
X1066800Y-825500D03*
G01*
X596900Y-2374900D03*
G01*
X660400Y-2514600D03*
G01*
X762000Y-2692400D03*
G01*
X1562100Y-3048000D03*
G01*
X1331264Y-3135756D03*
G01*
X927100Y-3149600D03*
M02*
