G04 Layer: TopSolderMaskLayer*
G04 EasyEDA v6.5.48, 2025-02-28 21:12:29*
G04 f07ec6733612464396c25f3e913e17d3,f6e0bafd38ec4930a7932960837fbf78,10*
G04 Gerber Generator version 0.2*
G04 Scale: 100 percent, Rotated: No, Reflected: No *
G04 Dimensions in millimeters *
G04 leading zeros omitted , absolute positions ,4 integer and 5 decimal *
%FSLAX45Y45*%
%MOMM*%

%AMMACRO1*4,1,8,-1.3711,-0.8683,-1.4008,-0.8385,-1.4008,0.8386,-1.3711,0.8683,1.371,0.8683,1.4008,0.8386,1.4008,-0.8385,1.371,-0.8683,-1.3711,-0.8683,0*%
%AMMACRO2*4,1,8,-0.4211,-0.5008,-0.4508,-0.471,-0.4508,0.4711,-0.4211,0.5008,0.421,0.5008,0.4508,0.4711,0.4508,-0.471,0.421,-0.5008,-0.4211,-0.5008,0*%
%AMMACRO3*4,1,8,-0.4161,-0.3208,-0.4458,-0.291,-0.4458,0.2911,-0.4161,0.3208,0.4161,0.3208,0.4458,0.2911,0.4458,-0.291,0.4161,-0.3208,-0.4161,-0.3208,0*%
%AMMACRO4*4,1,8,-0.4961,-0.6258,-0.5258,-0.596,-0.5258,0.5961,-0.4961,0.6258,0.496,0.6258,0.5258,0.5961,0.5258,-0.596,0.496,-0.6258,-0.4961,-0.6258,0*%
%AMMACRO5*4,1,8,-0.8085,-0.8382,-0.8382,-0.8084,-0.8382,0.8085,-0.8085,0.8382,0.8084,0.8382,0.8382,0.8085,0.8382,-0.8084,0.8084,-0.8382,-0.8085,-0.8382,0*%
%AMMACRO6*4,1,8,-0.4211,-0.5508,-0.4508,-0.521,-0.4508,0.5211,-0.4211,0.5508,0.421,0.5508,0.4508,0.5211,0.4508,-0.521,0.421,-0.5508,-0.4211,-0.5508,0*%
%AMMACRO7*4,1,8,0.2856,-0.5921,-0.6575,-0.0028,-0.6669,0.0382,-0.3267,0.5827,-0.2857,0.5921,0.6574,0.0029,0.6669,-0.0381,0.3266,-0.5827,0.2856,-0.5921,0*%
%AMMACRO8*4,1,8,0.2857,-0.5922,-0.6574,-0.0028,-0.6669,0.0382,-0.3267,0.5827,-0.2857,0.5922,0.6574,0.0028,0.6669,-0.0382,0.3267,-0.5827,0.2857,-0.5922,0*%
%AMMACRO9*4,1,8,0.2856,-0.5922,-0.6575,-0.0029,-0.6669,0.0381,-0.3266,0.5827,-0.2856,0.5922,0.6574,0.0028,0.6669,-0.0382,0.3266,-0.5827,0.2856,-0.5922,0*%
%AMMACRO10*4,1,8,-0.055,-0.6658,-0.0943,-0.6507,-0.5466,0.3652,-0.5316,0.4045,0.055,0.6658,0.0943,0.6507,0.5466,-0.3652,0.5316,-0.4045,-0.055,-0.6658,0*%
%AMMACRO11*4,1,8,-0.055,-0.6657,-0.0943,-0.6507,-0.5466,0.3652,-0.5316,0.4045,0.0549,0.6657,0.0942,0.6507,0.5466,-0.3653,0.5316,-0.4046,-0.055,-0.6657,0*%
%AMMACRO12*4,1,8,-0.0551,-0.6657,-0.0943,-0.6506,-0.5466,0.3653,-0.5315,0.4046,0.0551,0.6657,0.0943,0.6506,0.5466,-0.3653,0.5315,-0.4046,-0.0551,-0.6657,0*%
%AMMACRO13*4,1,8,-0.2436,-0.6106,-0.2852,-0.6041,-0.6626,-0.0846,-0.656,-0.043,0.2436,0.6106,0.2852,0.6041,0.6626,0.0846,0.656,0.043,-0.2436,-0.6106,0*%
%AMMACRO14*4,1,8,-0.2436,-0.6106,-0.2852,-0.6041,-0.6626,-0.0846,-0.6561,-0.043,0.2436,0.6106,0.2852,0.6041,0.6626,0.0846,0.6561,0.043,-0.2436,-0.6106,0*%
%AMMACRO15*4,1,8,-0.3211,-0.5858,-0.3508,-0.5561,-0.3508,0.5561,-0.3211,0.5858,0.321,0.5857,0.3508,0.556,0.3507,-0.5561,0.321,-0.5858,-0.3211,-0.5858,0*%
%AMMACRO16*4,1,8,-0.3211,-0.5859,-0.3508,-0.5561,-0.3508,0.5561,-0.321,0.5859,0.3211,0.5858,0.3508,0.5561,0.3508,-0.556,0.321,-0.5858,-0.3211,-0.5859,0*%
%AMMACRO17*4,1,8,-0.321,-0.5858,-0.3508,-0.556,-0.3508,0.556,-0.321,0.5858,0.321,0.5858,0.3508,0.556,0.3508,-0.556,0.321,-0.5858,-0.321,-0.5858,0*%
%AMMACRO18*4,1,8,0.0898,-0.6619,-0.5097,-0.4318,-0.5267,-0.3934,-0.1282,0.6448,-0.0898,0.6619,0.5097,0.4319,0.5267,0.3934,0.1283,-0.6448,0.0898,-0.6619,0*%
%AMMACRO19*4,1,8,0.0898,-0.6619,-0.5097,-0.4318,-0.5268,-0.3934,-0.1282,0.6448,-0.0898,0.6619,0.5097,0.4319,0.5268,0.3934,0.1283,-0.6448,0.0898,-0.6619,0*%
%AMMACRO20*4,1,8,0.0898,-0.6619,-0.5097,-0.4318,-0.5267,-0.3934,-0.1283,0.6448,-0.0898,0.6619,0.5097,0.4318,0.5267,0.3934,0.1282,-0.6448,0.0898,-0.6619,0*%
%AMMACRO21*4,1,8,-0.2113,-0.6225,-0.2532,-0.6181,-0.6573,-0.1192,-0.6529,-0.0773,0.2114,0.6225,0.2532,0.6181,0.6573,0.1192,0.6529,0.0773,-0.2113,-0.6225,0*%
%AMMACRO22*4,1,8,-0.2113,-0.6225,-0.2532,-0.6181,-0.6573,-0.1192,-0.6529,-0.0773,0.2113,0.6225,0.2532,0.6181,0.6573,0.1192,0.6529,0.0773,-0.2113,-0.6225,0*%
%AMMACRO23*4,1,8,-0.2114,-0.6226,-0.2533,-0.6182,-0.6573,-0.1192,-0.6529,-0.0773,0.2113,0.6226,0.2532,0.6182,0.6573,0.1192,0.6529,0.0773,-0.2114,-0.6226,0*%
%AMMACRO24*4,1,8,-0.5561,-0.3509,-0.5858,-0.3211,-0.5858,0.321,-0.5561,0.3508,0.556,0.3509,0.5858,0.3211,0.5858,-0.321,0.556,-0.3508,-0.5561,-0.3509,0*%
%AMMACRO25*4,1,8,-0.5561,-0.3508,-0.5858,-0.321,-0.5858,0.3211,-0.5561,0.3508,0.556,0.3508,0.5858,0.3211,0.5858,-0.321,0.556,-0.3508,-0.5561,-0.3508,0*%
%AMMACRO26*4,1,8,0.556,-0.3508,-0.556,-0.3507,-0.5857,-0.321,-0.5858,0.3211,-0.556,0.3508,0.556,0.3508,0.5858,0.3211,0.5858,-0.321,0.556,-0.3508,0*%
%AMMACRO27*4,1,8,-0.5561,-0.3508,-0.5858,-0.3211,-0.5858,0.3211,-0.5561,0.3508,0.556,0.3508,0.5858,0.321,0.5858,-0.3211,0.556,-0.3508,-0.5561,-0.3508,0*%
%AMMACRO28*4,1,8,-0.5561,-0.3508,-0.5858,-0.321,-0.5858,0.3211,-0.556,0.3508,0.5561,0.3508,0.5858,0.3211,0.5858,-0.321,0.5561,-0.3508,-0.5561,-0.3508,0*%
%AMMACRO29*4,1,8,-0.5561,-0.3508,-0.5858,-0.3211,-0.5858,0.321,-0.5561,0.3508,0.556,0.3508,0.5858,0.3211,0.5858,-0.321,0.556,-0.3508,-0.5561,-0.3508,0*%
%AMMACRO30*4,1,8,-0.5561,-0.3508,-0.5858,-0.321,-0.5858,0.321,-0.5561,0.3508,0.556,0.3508,0.5858,0.321,0.5858,-0.321,0.556,-0.3508,-0.5561,-0.3508,0*%
%AMMACRO31*4,1,8,0.556,-0.3508,-0.556,-0.3508,-0.5858,-0.321,-0.5858,0.3211,-0.556,0.3508,0.556,0.3508,0.5858,0.321,0.5858,-0.3211,0.556,-0.3508,0*%
%AMMACRO32*4,1,8,0.2437,-0.6106,-0.6561,0.043,-0.6626,0.0846,-0.2852,0.6041,-0.2436,0.6106,0.6561,-0.043,0.6626,-0.0846,0.2852,-0.6041,0.2437,-0.6106,0*%
%AMMACRO33*4,1,8,0.2436,-0.6106,-0.6561,0.043,-0.6626,0.0846,-0.2852,0.6041,-0.2436,0.6106,0.6561,-0.043,0.6626,-0.0846,0.2852,-0.6041,0.2436,-0.6106,0*%
%AMMACRO34*4,1,8,0.2436,-0.6106,-0.6561,0.043,-0.6626,0.0846,-0.2852,0.6041,-0.2437,0.6106,0.6561,-0.0431,0.6626,-0.0847,0.2852,-0.6041,0.2436,-0.6106,0*%
%AMMACRO35*4,1,8,-0.2753,-0.5971,-0.3164,-0.5883,-0.6661,-0.0498,-0.6574,-0.0086,0.2753,0.5971,0.3164,0.5883,0.6661,0.0498,0.6574,0.0087,-0.2753,-0.5971,0*%
%AMMACRO36*4,1,8,-0.2753,-0.597,-0.3164,-0.5883,-0.6662,-0.0498,-0.6574,-0.0087,0.2752,0.597,0.3164,0.5883,0.6662,0.0498,0.6574,0.0086,-0.2753,-0.597,0*%
%AMMACRO37*4,1,8,-0.2753,-0.5971,-0.3164,-0.5883,-0.6662,-0.0498,-0.6574,-0.0087,0.2753,0.5971,0.3165,0.5883,0.6662,0.0498,0.6574,0.0086,-0.2753,-0.5971,0*%
%AMMACRO38*4,1,8,-0.2753,-0.5971,-0.3164,-0.5883,-0.6661,-0.0498,-0.6574,-0.0087,0.2753,0.5971,0.3165,0.5883,0.6661,0.0499,0.6574,0.0087,-0.2753,-0.5971,0*%
%AMMACRO39*4,1,8,-0.2753,-0.597,-0.3165,-0.5883,-0.6662,-0.0498,-0.6574,-0.0086,0.2753,0.597,0.3165,0.5883,0.6662,0.0498,0.6574,0.0087,-0.2753,-0.597,0*%
%AMMACRO40*4,1,8,-0.4531,-0.454,-0.4828,-0.4243,-0.4828,0.4243,-0.4531,0.454,0.453,0.454,0.4828,0.4243,0.4828,-0.4243,0.453,-0.454,-0.4531,-0.454,0*%
%AMMACRO41*4,1,8,-0.5211,-0.3758,-0.5508,-0.346,-0.5508,0.346,-0.5211,0.3758,0.521,0.3758,0.5508,0.346,0.5508,-0.346,0.521,-0.3758,-0.5211,-0.3758,0*%
%AMMACRO42*4,1,8,-0.8716,-0.6546,-0.9013,-0.6248,-0.9013,0.6248,-0.8716,0.6546,0.8715,0.6546,0.9013,0.6248,0.9013,-0.6248,0.8715,-0.6546,-0.8716,-0.6546,0*%
%ADD10MACRO1*%
%ADD11MACRO2*%
%ADD12MACRO3*%
%ADD13MACRO4*%
%ADD14MACRO5*%
%ADD15C,1.6764*%
%ADD16MACRO6*%
%ADD17MACRO7*%
%ADD18MACRO8*%
%ADD19MACRO9*%
%ADD20MACRO10*%
%ADD21MACRO11*%
%ADD22MACRO12*%
%ADD23MACRO13*%
%ADD24MACRO14*%
%ADD25MACRO15*%
%ADD26MACRO16*%
%ADD27MACRO17*%
%ADD28MACRO18*%
%ADD29MACRO19*%
%ADD30MACRO20*%
%ADD31MACRO21*%
%ADD32MACRO22*%
%ADD33MACRO23*%
%ADD34MACRO24*%
%ADD35MACRO25*%
%ADD36MACRO26*%
%ADD37MACRO27*%
%ADD38MACRO28*%
%ADD39MACRO29*%
%ADD40MACRO30*%
%ADD41MACRO31*%
%ADD42MACRO32*%
%ADD43MACRO33*%
%ADD44MACRO34*%
%ADD45MACRO35*%
%ADD46MACRO36*%
%ADD47MACRO37*%
%ADD48MACRO38*%
%ADD49MACRO39*%
%ADD50MACRO40*%
%ADD51MACRO41*%
%ADD52C,1.7272*%
%ADD53MACRO42*%
%ADD54O,1.8436082X0.4656074*%

%LPD*%
D10*
G01*
X2273300Y-481949D03*
G01*
X2273300Y-178450D03*
D11*
G01*
X158600Y-482600D03*
G01*
X298599Y-482600D03*
D12*
G01*
X224894Y-215900D03*
G01*
X333905Y-215900D03*
D13*
G01*
X1596059Y-406400D03*
G01*
X1934540Y-406400D03*
D14*
G01*
X127000Y-1333500D03*
D15*
G01*
X127000Y-1587500D03*
G01*
X127000Y-1841500D03*
G01*
X127000Y-2095500D03*
D14*
G01*
X2412994Y-2095500D03*
D15*
G01*
X2413000Y-1841500D03*
G01*
X2413000Y-1587500D03*
G01*
X2413000Y-1333500D03*
D16*
G01*
X933201Y-610301D03*
G01*
X838205Y-380298D03*
G01*
X743198Y-610298D03*
D17*
G01*
X555209Y-1543094D03*
D18*
G01*
X454524Y-1704218D03*
D19*
G01*
X714333Y-1754540D03*
D20*
G01*
X1677948Y-3135958D03*
D21*
G01*
X1851513Y-3058681D03*
D22*
G01*
X1664265Y-2871677D03*
D23*
G01*
X72848Y-2535736D03*
D24*
G01*
X184522Y-2689443D03*
G01*
X328512Y-2467408D03*
D25*
G01*
X1238506Y-3222297D03*
D26*
G01*
X1428493Y-3222297D03*
D27*
G01*
X1333498Y-2975298D03*
D28*
G01*
X832251Y-3103854D03*
D29*
G01*
X1009625Y-3171939D03*
D30*
G01*
X1009456Y-2907300D03*
D31*
G01*
X377638Y-3077293D03*
D32*
G01*
X497203Y-3224945D03*
D33*
G01*
X629377Y-2995678D03*
D34*
G01*
X2218999Y-2063496D03*
D35*
G01*
X2218998Y-1873505D03*
D36*
G01*
X1971996Y-1968500D03*
D37*
G01*
X2218999Y-2431793D03*
D38*
G01*
X2218997Y-2241803D03*
D35*
G01*
X1972000Y-2336800D03*
D39*
G01*
X333701Y-1924303D03*
D40*
G01*
X333701Y-2114294D03*
D41*
G01*
X580701Y-2019297D03*
D42*
G01*
X2063374Y-2879942D03*
D43*
G01*
X2175048Y-2726237D03*
D44*
G01*
X1919386Y-2657904D03*
D45*
G01*
X441580Y-2679992D03*
D46*
G01*
X545062Y-2839331D03*
D47*
G01*
X700472Y-2625135D03*
D48*
G01*
X2085712Y-1663407D03*
D49*
G01*
X1982236Y-1504067D03*
G01*
X1826822Y-1718264D03*
D50*
G01*
X2171700Y-1118475D03*
G01*
X2171700Y-1269124D03*
G01*
X127000Y-1053224D03*
G01*
X127000Y-902575D03*
D51*
G01*
X1107300Y-573600D03*
G01*
X1107300Y-391599D03*
G01*
X1407299Y-391599D03*
G01*
X1407299Y-573600D03*
D52*
G01*
X1541475Y-2549601D03*
G01*
X1650364Y-2392045D03*
G01*
X1673529Y-2201951D03*
G01*
X879398Y-2201265D03*
G01*
X1180337Y-2638297D03*
G01*
X902258Y-2391384D03*
G01*
X1010843Y-2549118D03*
G01*
X947572Y-2022297D03*
G01*
X1605686Y-2022881D03*
G01*
X1371828Y-2638450D03*
G01*
X1276426Y-1850009D03*
G01*
X1454226Y-1894408D03*
G01*
X1091107Y-1895525D03*
D53*
G01*
X1955799Y-960676D03*
G01*
X1955799Y-664923D03*
G01*
X2387600Y-766523D03*
G01*
X2387600Y-1062276D03*
D15*
G01*
X1911400Y-150012D03*
G01*
X1657400Y-150012D03*
G01*
X1403400Y-150012D03*
G01*
X1149400Y-150012D03*
G01*
X895400Y-150012D03*
D14*
G01*
X641398Y-149999D03*
D54*
G01*
X779703Y-774293D03*
G01*
X779703Y-839292D03*
G01*
X779703Y-904290D03*
G01*
X779703Y-969289D03*
G01*
X779703Y-1034313D03*
G01*
X779703Y-1099312D03*
G01*
X779703Y-1164310D03*
G01*
X779703Y-1229309D03*
G01*
X779703Y-1294307D03*
G01*
X779703Y-1359306D03*
G01*
X1353896Y-774293D03*
G01*
X1353896Y-839292D03*
G01*
X1353896Y-904290D03*
G01*
X1353896Y-969289D03*
G01*
X1353896Y-1034313D03*
G01*
X1353896Y-1099312D03*
G01*
X1353896Y-1164310D03*
G01*
X1353896Y-1229309D03*
G01*
X1353896Y-1294307D03*
G01*
X1353896Y-1359306D03*
M02*
